<svg width="213" height="101" viewBox="0 0 213 101" fill="none" xmlns="http://www.w3.org/2000/svg">
<rect width="213" height="101" rx="10" fill="#375AB1" fill-opacity="0.51"/>
<path d="M34.652 57.198C33.716 57.198 32.888 57.042 32.168 56.73C31.448 56.406 30.884 55.968 30.476 55.416C30.068 54.852 29.864 54.21 29.864 53.49C29.864 53.022 29.966 52.59 30.17 52.194C30.386 51.786 30.686 51.438 31.07 51.15C31.466 50.85 31.91 50.628 32.402 50.484C31.766 50.256 31.25 49.896 30.854 49.404C30.458 48.912 30.26 48.36 30.26 47.748C30.26 47.076 30.452 46.476 30.836 45.948C31.22 45.408 31.742 44.982 32.402 44.67C33.074 44.358 33.824 44.202 34.652 44.202C35.492 44.202 36.242 44.358 36.902 44.67C37.562 44.982 38.084 45.408 38.468 45.948C38.852 46.476 39.044 47.076 39.044 47.748C39.044 48.36 38.846 48.912 38.45 49.404C38.054 49.896 37.538 50.256 36.902 50.484C37.658 50.712 38.27 51.096 38.738 51.636C39.206 52.164 39.44 52.782 39.44 53.49C39.44 54.21 39.236 54.852 38.828 55.416C38.432 55.968 37.868 56.406 37.136 56.73C36.416 57.042 35.588 57.198 34.652 57.198ZM34.652 49.656C35.048 49.656 35.402 49.584 35.714 49.44C36.038 49.284 36.29 49.074 36.47 48.81C36.65 48.546 36.74 48.246 36.74 47.91C36.74 47.574 36.65 47.274 36.47 47.01C36.29 46.734 36.038 46.524 35.714 46.38C35.402 46.224 35.048 46.146 34.652 46.146C34.256 46.146 33.896 46.224 33.572 46.38C33.26 46.524 33.014 46.728 32.834 46.992C32.654 47.256 32.564 47.562 32.564 47.91C32.564 48.246 32.654 48.546 32.834 48.81C33.014 49.074 33.26 49.284 33.572 49.44C33.896 49.584 34.256 49.656 34.652 49.656ZM34.652 55.236C35.132 55.236 35.552 55.158 35.912 55.002C36.272 54.834 36.554 54.606 36.758 54.318C36.962 54.018 37.064 53.688 37.064 53.328C37.064 52.956 36.962 52.626 36.758 52.338C36.554 52.05 36.272 51.822 35.912 51.654C35.552 51.486 35.132 51.402 34.652 51.402C34.184 51.402 33.764 51.486 33.392 51.654C33.032 51.822 32.75 52.05 32.546 52.338C32.342 52.626 32.24 52.956 32.24 53.328C32.24 53.688 32.342 54.018 32.546 54.318C32.75 54.606 33.032 54.834 33.392 55.002C33.764 55.158 34.184 55.236 34.652 55.236ZM46.4939 57.198C45.4019 57.198 44.4359 56.928 43.5959 56.388C42.7679 55.836 42.1199 55.074 41.6519 54.102C41.1959 53.118 40.9679 51.984 40.9679 50.7C40.9679 49.404 41.1959 48.27 41.6519 47.298C42.1199 46.326 42.7679 45.57 43.5959 45.03C44.4359 44.478 45.4019 44.202 46.4939 44.202C47.5979 44.202 48.5639 44.478 49.3919 45.03C50.2319 45.57 50.8799 46.326 51.3359 47.298C51.8039 48.27 52.0379 49.404 52.0379 50.7C52.0379 51.984 51.8039 53.118 51.3359 54.102C50.8799 55.074 50.2319 55.836 49.3919 56.388C48.5639 56.928 47.5979 57.198 46.4939 57.198ZM46.4939 55.056C47.1419 55.056 47.6999 54.882 48.1679 54.534C48.6359 54.186 48.9959 53.682 49.2479 53.022C49.5119 52.362 49.6439 51.588 49.6439 50.7C49.6439 49.8 49.5119 49.026 49.2479 48.378C48.9959 47.718 48.6359 47.214 48.1679 46.866C47.6999 46.518 47.1419 46.344 46.4939 46.344C45.8579 46.344 45.3059 46.518 44.8379 46.866C44.3699 47.214 44.0039 47.718 43.7399 48.378C43.4879 49.026 43.3619 49.8 43.3619 50.7C43.3619 51.588 43.4879 52.362 43.7399 53.022C44.0039 53.682 44.3699 54.186 44.8379 54.534C45.3059 54.882 45.8579 55.056 46.4939 55.056Z" fill="#70EE8C"/>
<path d="M41 28C35.9046 28 30.9535 29.692 26.9238 32.8104C22.8941 35.9289 20.014 40.2971 18.7356 45.2295C17.4573 50.162 17.853 55.3792 19.8606 60.0624C21.8683 64.7456 25.3743 68.6295 29.8282 71.1045C34.2821 73.5795 39.4318 74.5054 44.4689 73.7369C49.506 72.9684 54.1453 70.549 57.6586 66.8585C61.1719 63.168 63.3602 58.4153 63.88 53.3465C64.3998 48.2777 63.2218 43.1798 60.5307 38.853L56.5707 41.3159C58.7161 44.7654 59.6553 48.8297 59.2409 52.8707C58.8264 56.9118 57.0818 60.7008 54.2809 63.643C51.48 66.5853 47.7813 68.5141 43.7656 69.1268C39.7498 69.7395 35.6442 69.0013 32.0934 67.0281C28.5425 65.055 25.7474 61.9586 24.1468 58.2249C22.5462 54.4913 22.2308 50.3319 23.2499 46.3996C24.2691 42.4672 26.5652 38.9847 29.7779 36.4985C32.9905 34.0124 36.9378 32.6635 41 32.6635L41 28Z" fill="#6288E9" fill-opacity="0.51"/>
<path d="M101.138 57.198C100.07 57.198 99.134 56.934 98.33 56.406C97.526 55.878 96.896 55.152 96.44 54.228C95.996 53.292 95.774 52.206 95.774 50.97C95.774 49.614 96.02 48.432 96.512 47.424C97.016 46.404 97.712 45.612 98.6 45.048C99.5 44.484 100.55 44.202 101.75 44.202C102.41 44.202 103.064 44.31 103.712 44.526C104.36 44.742 104.9 45.042 105.332 45.426L104 47.118C103.652 46.842 103.28 46.638 102.884 46.506C102.488 46.374 102.05 46.308 101.57 46.308C100.838 46.308 100.214 46.494 99.698 46.866C99.182 47.238 98.786 47.772 98.51 48.468C98.246 49.152 98.108 49.992 98.096 50.988C98.516 50.412 99.02 49.968 99.608 49.656C100.196 49.332 100.814 49.17 101.462 49.17C102.29 49.17 103.022 49.338 103.658 49.674C104.294 49.998 104.792 50.454 105.152 51.042C105.512 51.618 105.692 52.278 105.692 53.022C105.692 53.814 105.494 54.528 105.098 55.164C104.702 55.788 104.162 56.286 103.478 56.658C102.794 57.018 102.014 57.198 101.138 57.198ZM101.066 51.024C100.514 51.024 99.992 51.138 99.5 51.366C99.02 51.594 98.594 51.918 98.222 52.338C98.342 52.914 98.528 53.418 98.78 53.85C99.044 54.27 99.368 54.594 99.752 54.822C100.136 55.05 100.562 55.164 101.03 55.164C101.474 55.164 101.87 55.074 102.218 54.894C102.578 54.714 102.86 54.468 103.064 54.156C103.268 53.832 103.37 53.472 103.37 53.076C103.37 52.668 103.274 52.314 103.082 52.014C102.89 51.702 102.62 51.462 102.272 51.294C101.936 51.114 101.534 51.024 101.066 51.024ZM112.599 57.198C111.507 57.198 110.541 56.928 109.701 56.388C108.873 55.836 108.225 55.074 107.757 54.102C107.301 53.118 107.073 51.984 107.073 50.7C107.073 49.404 107.301 48.27 107.757 47.298C108.225 46.326 108.873 45.57 109.701 45.03C110.541 44.478 111.507 44.202 112.599 44.202C113.703 44.202 114.669 44.478 115.497 45.03C116.337 45.57 116.985 46.326 117.441 47.298C117.909 48.27 118.143 49.404 118.143 50.7C118.143 51.984 117.909 53.118 117.441 54.102C116.985 55.074 116.337 55.836 115.497 56.388C114.669 56.928 113.703 57.198 112.599 57.198ZM112.599 55.056C113.247 55.056 113.805 54.882 114.273 54.534C114.741 54.186 115.101 53.682 115.353 53.022C115.617 52.362 115.749 51.588 115.749 50.7C115.749 49.8 115.617 49.026 115.353 48.378C115.101 47.718 114.741 47.214 114.273 46.866C113.805 46.518 113.247 46.344 112.599 46.344C111.963 46.344 111.411 46.518 110.943 46.866C110.475 47.214 110.109 47.718 109.845 48.378C109.593 49.026 109.467 49.8 109.467 50.7C109.467 51.588 109.593 52.362 109.845 53.022C110.109 53.682 110.475 54.186 110.943 54.534C111.411 54.882 111.963 55.056 112.599 55.056Z" fill="#7385E2"/>
<path d="M107 28C103.344 28 99.7405 28.8716 96.4885 30.5425C93.2366 32.2134 90.4298 34.6355 88.301 37.6079C86.1722 40.5803 84.7827 44.0174 84.2476 47.6342C83.7126 51.2509 84.0475 54.9431 85.2245 58.4045C86.4015 61.866 88.3868 64.997 91.0157 67.5379C93.6445 70.0788 96.8413 71.9563 100.341 73.0149C103.84 74.0734 107.542 74.2825 111.138 73.6247C114.735 72.9669 118.122 71.4612 121.021 69.2324L118.178 65.5356C115.867 67.3125 113.166 68.5129 110.299 69.0373C107.432 69.5617 104.481 69.3951 101.691 68.5512C98.9011 67.7072 96.3525 66.2104 94.2566 64.1847C92.1608 62.159 90.5781 59.6628 89.6397 56.9032C88.7013 54.1436 88.4343 51.2 88.8609 48.3166C89.2874 45.4332 90.3952 42.693 92.0924 40.3233C93.7896 37.9536 96.0272 36.0226 98.6198 34.6905C101.212 33.3583 104.085 32.6635 107 32.6635L107 28Z" fill="#6288E9" fill-opacity="0.51"/>
<path d="M166.382 57.198C165.41 57.198 164.504 57.03 163.664 56.694C162.836 56.346 162.14 55.86 161.576 55.236L163.16 53.76C163.64 54.276 164.114 54.636 164.582 54.84C165.062 55.032 165.65 55.128 166.346 55.128C166.85 55.128 167.288 55.056 167.66 54.912C168.044 54.756 168.338 54.54 168.542 54.264C168.758 53.988 168.866 53.67 168.866 53.31C168.866 52.974 168.782 52.686 168.614 52.446C168.446 52.206 168.218 52.02 167.93 51.888C167.642 51.744 167.3 51.672 166.904 51.672H165.32V49.728H166.688C167.252 49.728 167.696 49.584 168.02 49.296C168.344 48.996 168.506 48.588 168.506 48.072C168.506 47.736 168.41 47.436 168.218 47.172C168.026 46.896 167.762 46.68 167.426 46.524C167.102 46.368 166.73 46.29 166.31 46.29C165.686 46.29 165.146 46.398 164.69 46.614C164.246 46.83 163.778 47.214 163.286 47.766L161.684 46.29C162.272 45.63 162.974 45.12 163.79 44.76C164.618 44.388 165.488 44.202 166.4 44.202C167.276 44.202 168.05 44.358 168.722 44.67C169.394 44.97 169.922 45.39 170.306 45.93C170.69 46.47 170.882 47.088 170.882 47.784C170.882 48.456 170.66 49.056 170.216 49.584C169.772 50.1 169.196 50.46 168.488 50.664C169.328 50.832 169.994 51.168 170.486 51.672C170.99 52.176 171.242 52.782 171.242 53.49C171.242 54.198 171.032 54.834 170.612 55.398C170.192 55.962 169.616 56.406 168.884 56.73C168.164 57.042 167.33 57.198 166.382 57.198ZM174.901 57V46.902L172.435 47.928V45.768L175.801 44.4H177.367V57H174.901Z" fill="#E89191"/>
<path d="M173 28C169.212 28 165.483 28.9356 162.143 30.7237C158.804 32.5117 155.958 35.0969 153.858 38.2496C151.758 41.4022 150.469 45.0247 150.106 48.7953C149.743 52.5659 150.317 56.3677 151.776 59.8632L156.08 58.0661C154.916 55.2794 154.458 52.2484 154.748 49.2423C155.037 46.2363 156.065 43.3483 157.739 40.8348C159.413 38.3214 161.682 36.2604 164.345 34.8349C167.007 33.4094 169.98 32.6635 173 32.6635L173 28Z" fill="#6288E9" fill-opacity="0.51"/>
</svg>
