<svg width="300" height="300" viewBox="0 0 300 300" fill="none" xmlns="http://www.w3.org/2000/svg">
<path d="M147.5 1.18423C146.4 1.48422 134.9 4.78424 122 8.68423C109.1 12.4842 96.5 16.2842 94 16.9842C64.2001 25.3842 28.1001 36.9842 26.2001 38.7842L24.0001 40.7842V111.584C24.0001 190.584 23.9001 188.984 30.9001 204.084C43.3001 230.584 70.6001 256.384 112.5 281.384C132.8 293.384 145.7 299.784 150 299.784C154.3 299.784 167.2 293.384 187.5 281.384C229.4 256.384 256.7 230.584 269.1 204.084C276.1 188.984 276 190.584 276 111.584V40.7842L273.8 38.7842C271.6 36.6842 257.6 32.2842 181.5 9.68423C152.1 0.984222 150.5 0.584229 147.5 1.18423ZM171.5 9.98422C181.9 13.0842 191.2 15.8842 192 16.0842C199.8 18.0842 269 39.3842 270.8 40.3842L273 41.5842V112.284C273 190.384 273.1 188.984 266.6 203.084C264.7 207.084 260.8 213.884 257.8 218.184C251.2 227.884 234.3 244.984 222.5 253.984C217.6 257.784 213.3 261.184 213 261.484C212.3 262.384 193.7 274.484 187 278.584C184 280.384 174.4 285.584 165.8 290.084L150 298.284L134.3 290.084C116.1 280.584 111.3 277.784 97.5 268.584C66.5001 248.084 43.2001 224.284 33.5001 203.184C26.8001 188.684 27.0001 191.184 27.0001 112.584V41.4842L30.3001 39.9842C32.0001 39.0842 59.1001 30.7842 90.5 21.3842C121.8 12.0842 147.7 4.18423 148 3.88422C148.7 3.18423 149.9 3.48422 171.5 9.98422Z" fill="#04D500"/>
<path d="M148.5 15.9843C148 16.1843 144.4 17.2843 140.5 18.3843C136.7 19.5843 120.7 24.3843 105 29.0843C89.3 33.7843 72.7 38.7843 68 40.0843C41.5001 47.8842 40.1001 48.3842 39.3001 51.2843C38.8001 52.7842 38.5001 82.5842 38.5001 117.484V180.984L40.8001 188.484C49.2001 215.484 76.4 242.884 122 270.084C136.5 278.784 147.6 284.484 150 284.484C153.9 284.484 178.2 270.784 198 257.384C229.6 235.984 250.4 212.984 258.4 190.684L261.5 181.984V116.784C261.5 52.8842 261.5 51.4843 259.5 49.5842C258.4 48.4843 252.1 46.0843 245.5 44.0843C238.9 42.1842 215.7 35.2843 194 28.6843C152 16.0843 150.1 15.4843 148.5 15.9843ZM159.5 20.9843C161.7 21.6843 167.6 23.4843 172.5 24.9843C177.5 26.3842 184.9 28.6843 189 29.9843C193.1 31.1843 199.9 33.2843 204 34.4843C210.5 36.3843 218.9 38.8843 239 44.9843C241.5 45.6842 247 47.2843 251.3 48.5842L259 50.8842V115.984C258.9 176.084 258.8 181.484 257.1 186.984C252.9 200.884 246.9 210.384 233.7 224.184C215.4 243.184 194.2 258.584 161.8 276.184L150 282.484L138.3 276.184C105.8 258.584 84.6 243.184 66.3 224.184C56.8001 214.184 49.4001 203.984 46.0001 195.884C41.1001 184.584 41.0001 183.084 41.0001 114.884V50.8842L48.8001 48.5842C53.0001 47.2843 58.5 45.6842 61 44.9843C81.1 38.8843 89.5 36.3843 96 34.4843C100.1 33.2843 106.9 31.1843 111 29.9843C124 25.9843 131.3 23.7843 139 21.4843C143.1 20.2843 147 19.1843 147.5 18.9843C148.9 18.3843 154.7 19.3843 159.5 20.9843Z" fill="#04D500"/>
<path d="M132 96.5842C115.4 100.784 97 111.884 80.7001 127.484C68.7001 138.984 62.0001 147.184 62.0001 150.484C62.0001 155.884 84.6 179.084 99.3 188.884C134.6 212.384 165.4 212.384 200.7 188.884C215.4 179.084 238 155.884 238 150.484C238 147.184 231.3 138.984 219.3 127.484C202.8 111.684 184.5 100.784 167.5 96.4842C157 93.8842 142.3 93.8842 132 96.5842ZM165.4 98.9842C179.7 101.684 201.5 114.084 216.7 128.184C227 137.784 235 147.584 235 150.584C235 155.884 214.7 176.284 198.4 187.284C187.3 194.784 173.7 200.784 162 203.184C160.6 203.484 155.2 203.784 150 203.784C129.1 203.884 108.1 194.484 86.2 175.384C77.2001 167.584 64.0001 152.884 64.0001 150.584C64.0001 147.084 83 127.484 95 118.584C119.6 100.284 141.2 94.2842 165.4 98.9842Z" fill="#0085FF"/>
<path d="M139.1 103.484C126.6 106.184 113.1 112.584 100.5 121.884C92.4 127.884 76.7001 142.984 73.5001 147.884C71.8001 150.484 71.8001 150.584 74.6001 154.584C82.6001 166.184 108 186.184 122.7 192.384C153.8 205.684 183.3 196.884 215.6 164.984C228.2 152.484 228.9 150.984 224.3 145.284C219.8 139.684 207.1 127.784 199.4 121.884C190.1 114.984 177.6 108.284 168.5 105.484C160.6 103.084 145.9 102.084 139.1 103.484ZM161.5 106.984C175.6 109.984 189.7 117.384 204.4 129.584C213.3 137.084 224.5 148.684 224.5 150.484C224.5 152.384 213.7 163.584 204.6 171.184C186.2 186.584 166.1 195.484 150 195.484C139.3 195.484 124.8 190.784 111.6 182.984C99.7 175.984 75.5001 154.184 75.5001 150.484C75.5001 148.584 86.3001 137.384 95.4 129.784C110.1 117.484 124.2 109.984 138 107.084C146.7 105.184 152.6 105.184 161.5 106.984Z" fill="#0085FF"/>
<path d="M140.5 116.784C136.3 118.184 128 122.284 128 122.884C128 123.084 129.7 123.084 131.8 122.884C142.4 121.584 148.6 134.784 141.4 143.384C134.1 152.084 119.4 147.484 118.9 136.284C118.8 134.984 118 136.484 116.8 139.984C111.4 156.584 119.5 174.684 135.9 182.384C140.6 184.584 142.9 184.984 150 184.984C157.1 184.984 159.4 184.584 164.1 182.384C172 178.684 177.4 173.384 181.2 165.684C184.1 159.784 184.5 158.084 184.5 150.484C184.5 143.384 184.1 141.084 181.9 136.384C176.1 123.984 165 116.484 151.7 115.884C147.5 115.684 142.9 116.084 140.5 116.784ZM159.6 120.384C173.5 124.184 183 138.084 181.7 153.184C179.6 179.884 147.7 191.484 127.2 173.084C121.9 168.284 118.8 160.884 118.2 151.584L117.7 144.184L121.8 147.484C127.6 152.084 133.6 152.684 139 149.084C144.5 145.484 147 141.084 147 135.084C147 129.784 144.3 124.284 140.8 122.384C138.4 121.084 138.9 120.484 143.2 119.584C147.5 118.684 154.5 118.984 159.6 120.384Z" fill="#AF04FF"/>
</svg>
