<svg width="194" height="194" viewBox="0 0 194 194" fill="none" xmlns="http://www.w3.org/2000/svg">
<path d="M95.3833 0.452653C94.672 0.646653 87.2353 2.78065 78.8933 5.30265C70.5513 7.75999 62.4033 10.2173 60.7867 10.67C41.516 16.102 18.1713 23.6033 16.9427 24.7673L15.52 26.0607V71.8447C15.52 122.931 15.4553 121.897 19.982 131.661C28.0007 148.798 45.6547 165.482 72.75 181.649C85.8773 189.409 94.2193 193.547 97 193.547C99.7807 193.547 108.123 189.409 121.25 181.649C148.345 165.482 165.999 148.798 174.018 131.661C178.545 121.897 178.48 122.931 178.48 71.8447V26.0607L177.057 24.7673C175.635 23.4093 166.581 20.564 117.37 5.94932C98.358 0.323319 97.3233 0.0646526 95.3833 0.452653ZM110.903 6.14332C117.629 8.14799 123.643 9.95865 124.16 10.088C129.204 11.3813 173.953 25.1553 175.117 25.802L176.54 26.578V72.2973C176.54 122.802 176.605 121.897 172.401 131.015C171.173 133.601 168.651 137.999 166.711 140.779C162.443 147.052 151.514 158.11 143.883 163.93C140.715 166.387 137.934 168.586 137.74 168.78C137.287 169.362 125.259 177.187 120.927 179.838C118.987 181.002 112.779 184.365 107.217 187.275L97 192.577L86.8473 187.275C75.078 181.131 71.974 179.321 63.05 173.371C43.0033 160.115 27.936 144.724 21.6633 131.079C17.3307 121.703 17.46 123.319 17.46 72.4913V26.5133L19.594 25.5433C20.6933 24.9613 38.218 19.594 58.5233 13.5153C78.764 7.50132 95.5127 2.39265 95.7067 2.19865C96.1593 1.74599 96.9353 1.93999 110.903 6.14332Z" fill="#04D500"/>
<path d="M96.03 10.0233C95.7067 10.1527 93.3787 10.864 90.8567 11.5753C88.3993 12.3513 78.0527 15.4553 67.9 18.4947C57.7473 21.534 47.0127 24.7673 43.9733 25.608C26.8367 30.652 25.9313 30.9753 25.414 32.8507C25.0907 33.8207 24.8967 53.0913 24.8967 75.66V116.723L26.384 121.573C31.816 139.033 49.4053 156.752 78.8933 174.341C88.27 179.967 95.448 183.653 97 183.653C99.522 183.653 115.236 174.794 128.04 166.129C148.475 152.29 161.925 137.417 167.099 122.996L169.103 117.37V75.2073C169.103 33.8853 169.103 32.98 167.81 31.7513C167.099 31.04 163.025 29.488 158.757 28.1947C154.489 26.966 139.486 22.504 125.453 18.236C98.2933 10.088 97.0647 9.7 96.03 10.0233ZM103.143 13.2567C104.566 13.7093 108.381 14.8733 111.55 15.8433C114.783 16.7487 119.569 18.236 122.22 19.0767C124.871 19.8527 129.269 21.2107 131.92 21.9867C136.123 23.2153 141.555 24.832 154.553 28.7767C156.17 29.2293 159.727 30.264 162.507 31.1047L167.487 32.592V74.69C167.422 113.555 167.357 117.047 166.258 120.603C163.542 129.592 159.662 135.735 151.126 144.659C139.292 156.946 125.583 166.905 104.631 178.286L97 182.36L89.434 178.286C68.4173 166.905 54.708 156.946 42.874 144.659C36.7307 138.193 31.9453 131.597 29.7467 126.359C26.578 119.051 26.5133 118.081 26.5133 73.9787V32.592L31.5573 31.1047C34.2733 30.264 37.83 29.2293 39.4467 28.7767C52.4447 24.832 57.8767 23.2153 62.08 21.9867C64.7313 21.2107 69.1287 19.8527 71.78 19.0767C80.1867 16.49 84.9073 15.0673 89.8867 13.58C92.538 12.804 95.06 12.0927 95.3833 11.9633C96.2887 11.5753 100.039 12.222 103.143 13.2567Z" fill="#04D500"/>
<path d="M85.36 62.1447C74.6253 64.8607 62.7267 72.0387 52.186 82.1267C44.426 89.5633 40.0933 94.866 40.0933 97C40.0933 100.492 54.708 115.495 64.214 121.832C87.0413 137.029 106.959 137.029 129.786 121.832C139.292 115.495 153.907 100.492 153.907 97C153.907 94.866 149.574 89.5633 141.814 82.1267C131.144 71.9093 119.31 64.8607 108.317 62.08C101.527 60.3987 92.0207 60.3987 85.36 62.1447ZM106.959 63.6967C116.206 65.4427 130.303 73.4613 140.133 82.5793C146.793 88.7873 151.967 95.1247 151.967 97.0647C151.967 100.492 138.839 113.684 128.299 120.797C121.121 125.647 112.326 129.527 104.76 131.079C103.855 131.273 100.363 131.467 97 131.467C83.4847 131.532 69.9047 125.453 55.7427 113.102C49.9227 108.058 41.3867 98.552 41.3867 97.0647C41.3867 94.8013 53.6733 82.1267 61.4333 76.3713C77.3413 64.5373 91.3093 60.6573 106.959 63.6967Z" fill="#0085FF"/>
<path d="M89.9513 66.6067C81.868 68.3527 73.138 72.4913 64.99 78.5053C59.752 82.3853 49.5993 92.15 47.53 95.3187C46.4307 97 46.4307 97.0647 48.2413 99.6513C53.4147 107.153 69.84 120.086 79.346 124.095C99.4573 132.696 118.534 127.005 139.421 106.377C147.569 98.2933 148.022 97.3233 145.047 93.6373C142.137 90.016 133.925 82.3207 128.945 78.5053C122.931 74.0433 114.848 69.7107 108.963 67.9C103.855 66.348 94.3487 65.7013 89.9513 66.6067ZM104.437 68.87C113.555 70.81 122.673 75.5953 132.179 83.4847C137.934 88.3347 145.177 95.836 145.177 97C145.177 98.2287 138.193 105.471 132.308 110.386C120.409 120.345 107.411 126.1 97 126.1C90.0807 126.1 80.704 123.061 72.168 118.017C64.4727 113.49 48.8233 99.3927 48.8233 97C48.8233 95.7713 55.8073 88.5287 61.692 83.614C71.198 75.66 80.316 70.81 89.24 68.9347C94.866 67.706 98.6813 67.706 104.437 68.87Z" fill="#0085FF"/>
<path d="M90.8567 75.2073C88.1407 76.1127 82.7733 78.764 82.7733 79.152C82.7733 79.2813 83.8727 79.2813 85.2307 79.152C92.0853 78.3113 96.0947 86.8473 91.4387 92.4087C86.718 98.0347 77.212 95.06 76.8887 87.8173C76.824 86.9767 76.3067 87.9467 75.5307 90.21C72.0387 100.945 77.2767 112.649 87.882 117.629C90.9213 119.051 92.4087 119.31 97 119.31C101.591 119.31 103.079 119.051 106.118 117.629C111.227 115.236 114.719 111.809 117.176 106.829C119.051 103.014 119.31 101.915 119.31 97C119.31 92.4087 119.051 90.9213 117.629 87.882C113.878 79.8633 106.7 75.0133 98.0993 74.6253C95.3833 74.496 92.4087 74.7547 90.8567 75.2073ZM103.208 77.5353C112.197 79.9927 118.34 88.9813 117.499 98.746C116.141 116.012 95.5127 123.513 82.256 111.615C78.8287 108.511 76.824 103.725 76.436 97.7113L76.1127 92.926L78.764 95.06C82.5147 98.0347 86.3947 98.4227 89.8867 96.0947C93.4433 93.7667 95.06 90.9213 95.06 87.0413C95.06 83.614 93.314 80.0573 91.0507 78.8287C89.4987 77.988 89.822 77.6 92.6027 77.018C95.3833 76.436 99.91 76.63 103.208 77.5353Z" fill="#AF04FF"/>
</svg>
