<svg width="349" height="263" viewBox="0 0 349 263" fill="none" xmlns="http://www.w3.org/2000/svg">
<g filter="url(#filter0_d_29_56)">
<path d="M211 149H189C194.907 148.653 200.762 147.684 206.469 146.109C207.355 145.869 208.2 145.495 208.975 145C209.751 146.279 210.428 147.616 211 149Z" fill="#AD72DC"/>
</g>
<g filter="url(#filter1_d_29_56)">
<path d="M89.0067 148.616C91.1174 137.746 104.625 139.039 104.76 139.056C104.831 139.067 104.895 139.109 104.94 139.172C104.984 139.236 105.005 139.317 104.999 139.397C104.992 139.478 104.958 139.553 104.904 139.606C104.85 139.66 104.78 139.687 104.708 139.683C104.576 139.67 91.5555 138.428 89.5499 148.753C89.5338 148.835 89.4898 148.906 89.4274 148.951C89.3651 148.996 89.2897 149.011 89.2176 148.992C89.1456 148.974 89.0829 148.924 89.0433 148.854C89.0038 148.783 88.9906 148.698 89.0067 148.616Z" fill="white"/>
</g>
<g filter="url(#filter2_d_29_56)">
<path d="M100.753 133.247C98.0226 132.183 100.007 134.778 102.268 136.811C100.634 136.62 98.9868 136.555 97.342 136.617C96.9009 136.695 96.4216 137.299 99.137 138.052C102.76 138.992 106.269 140.316 109.603 142L110 137.918C104.963 135.847 102.521 133.936 100.753 133.247Z" fill="#AD72DC"/>
</g>
<g filter="url(#filter3_d_29_56)">
<path d="M110 144L109.687 147C109.026 146.919 108.361 146.87 107.694 146.854C102.055 146.764 104.048 145.49 106.005 144.977C107.007 144.712 108.684 144.401 110 144Z" fill="#AD72DC"/>
</g>
<g filter="url(#filter4_d_29_56)">
<path d="M110.822 137.181C104.065 134.367 100.614 131.04 99.6466 132.259C99.0182 133.046 101.178 135.189 101.899 135.898C100.472 135.701 99.026 135.67 97.5913 135.806C97.4429 135.819 97.3035 135.883 97.1962 135.986C97.0888 136.089 97.0199 136.225 97.0008 136.373C96.9294 137.826 101.811 137.95 109.058 141.309C109.383 141.507 109.746 141.724 110.162 141.962C110.228 142 110.306 142.01 110.379 141.99C110.452 141.97 110.514 141.922 110.552 141.856C110.589 141.79 110.599 141.712 110.58 141.639C110.56 141.566 110.511 141.504 110.446 141.466C109.461 140.92 108.516 140.305 107.618 139.626C105.988 138.532 104.421 137.349 102.924 136.082C101.644 134.92 99.9942 133.084 100.087 132.624C100.21 132.549 100.946 132.668 103.035 133.85C105.469 135.303 107.998 136.594 110.603 137.712C110.674 137.741 110.753 137.741 110.823 137.711C110.894 137.682 110.949 137.626 110.978 137.556C111.007 137.485 111.007 137.406 110.978 137.336C110.949 137.266 110.892 137.21 110.822 137.181ZM97.5655 136.423C97.6015 136.392 97.6459 136.373 97.693 136.367C99.3297 136.246 100.975 136.309 102.598 136.555C103.943 137.7 105.356 138.764 106.83 139.739C104.476 138.749 102.05 137.938 99.5738 137.313C97.7476 136.796 97.5822 136.42 97.567 136.42L97.5655 136.423Z" fill="black"/>
</g>
<g filter="url(#filter5_d_29_56)">
<path d="M109.426 148C108.826 147.91 108.223 147.856 107.618 147.838C104.538 147.778 104.064 147.251 104.005 146.745C103.902 145.863 105.522 145.262 106.02 145.099C107.093 144.747 108.392 144.477 109.616 144.017C109.69 143.989 109.77 143.996 109.839 144.036C109.909 144.075 109.961 144.145 109.985 144.228C110.01 144.312 110.004 144.403 109.969 144.482C109.934 144.561 109.873 144.62 109.799 144.648C108.559 145.11 107.131 145.431 106.18 145.738C105.17 146.064 104.612 146.512 104.583 146.67C104.583 146.67 104.848 147.12 107.629 147.175C108.243 147.192 108.855 147.247 109.463 147.341C109.535 147.353 109.601 147.395 109.647 147.46C109.693 147.525 109.716 147.607 109.712 147.69C109.707 147.773 109.675 147.851 109.622 147.908C109.569 147.966 109.499 147.999 109.426 148Z" fill="black"/>
</g>
<g filter="url(#filter6_d_29_56)">
<path d="M212.379 154H140.443L114 208.367C115.246 209.453 116.568 210.45 117.957 211.35L114 219.651C119.696 221.2 125.697 221.284 131.435 219.896L132.894 216.507C134.355 216.651 135.823 216.713 137.291 216.695L147.6 198.076L144.519 213.497C145.923 214.186 147.368 214.79 148.845 215.307L147.661 219.896C152.85 221.368 158.352 221.368 163.54 219.896L164.013 217.733C165.416 217.727 166.827 217.666 168.246 217.549L179.649 171.843L183.092 172.364L207.109 170.45L208.369 169.418C213.468 164.819 213.562 158.836 212.379 154Z" fill="#AD72DC"/>
</g>
<g filter="url(#filter7_d_29_56)">
<path d="M175.192 148.989C173.677 149.164 172.453 147.254 170.336 145.438C168.794 144.12 168.172 143.214 167.014 144.043C160.696 148.572 158.994 147.976 159.922 146.948C161.381 145.343 162.329 144.134 163.195 143.009C155.662 146.227 154.498 144.702 155.768 144.008C157.773 142.917 160.076 141.734 162.034 140.58C153.467 143.121 150.964 141.455 152.366 140.995C155.127 140.091 158.104 139.236 160.844 138.266C153.25 139.308 153.742 138.05 156.421 137.296C159.39 136.464 165.536 134.625 166.089 134.625C166.675 134.674 167.252 134.797 167.809 134.989C165.535 129.643 167.021 129.319 167.794 130.682C168.886 132.542 170.199 134.256 171.701 135.786C172.052 136.183 172.441 136.542 172.862 136.859L176.311 138.172L176.819 140.87C177.363 145.159 176.64 148.822 175.192 148.989Z" fill="#AD72DC"/>
</g>
<g filter="url(#filter8_d_29_56)">
<path d="M189.474 89.4802C188.914 89.7235 187.163 95.1992 188.9 98.1549C186.042 99.0485 182.879 99.5786 180.388 97.9356C181.121 97.1915 181.684 96.3061 182.038 95.3374L184.865 92.7842C184.096 92.9977 183.302 93.1158 182.502 93.1357C174.821 93.2438 182.149 82.0911 182.292 82.0911C186.07 76.9938 188.616 82.4215 188.374 85.6069C188.422 86.2422 188.738 86.4164 189.8 85.664C191.971 84.1321 193.544 87.717 189.474 89.4802Z" fill="#AD72DC"/>
</g>
<g filter="url(#filter9_d_29_56)">
<path d="M115.466 113.98C114.264 114.082 113.061 113.789 112.014 113.139C110.968 112.488 110.127 111.511 109.6 110.335C109.074 109.158 108.888 107.837 109.065 106.544C109.243 105.251 109.776 104.046 110.595 103.087C111.414 102.127 112.481 101.457 113.657 101.165C114.832 100.872 116.062 100.971 117.185 101.448C118.309 101.924 119.273 102.757 119.953 103.837C120.633 104.917 120.996 106.194 120.996 107.501C121.052 109.154 120.501 110.763 119.465 111.977C118.429 113.191 116.991 113.911 115.466 113.98ZM115.466 101.618C114.373 101.516 113.277 101.773 112.321 102.357C111.365 102.941 110.594 103.824 110.11 104.891C109.625 105.958 109.449 107.158 109.604 108.336C109.759 109.513 110.239 110.612 110.981 111.488C111.722 112.365 112.69 112.978 113.759 113.249C114.828 113.519 115.946 113.433 116.969 113.002C117.992 112.572 118.871 111.816 119.491 110.835C120.111 109.854 120.443 108.693 120.444 107.504C120.502 106.009 120.01 104.549 119.077 103.446C118.144 102.342 116.846 101.684 115.466 101.615V101.618Z" fill="white"/>
</g>
<g filter="url(#filter10_d_29_56)">
<path d="M116.496 99.9992C116.262 99.9992 115.978 99.9853 116.001 99.7131C116.017 99.1816 116.155 98.659 116.407 98.1787C116.659 97.6984 117.02 97.2711 117.465 96.9242C117.91 96.5772 118.431 96.3183 118.994 96.1641C119.556 96.0098 120.149 95.9636 120.732 96.0285C120.808 96.0335 120.879 96.0655 120.929 96.1175C120.979 96.1696 121.004 96.2374 120.999 96.3062C120.89 97.3628 120.372 98.3505 119.536 99.095C118.665 99.6995 117.593 100.018 116.496 99.9992ZM120.379 96.5479C119.455 96.4998 118.547 96.7781 117.846 97.3241C117.145 97.8701 116.706 98.6411 116.622 99.4742C117.546 99.5223 118.454 99.244 119.155 98.698C119.856 98.152 120.295 97.381 120.379 96.5479Z" fill="white"/>
</g>
<g filter="url(#filter11_d_29_56)">
<path d="M126.71 58H109.29C109.252 58 109.214 57.9925 109.179 57.9779C109.144 57.9634 109.112 57.942 109.085 57.9151C109.058 57.8882 109.037 57.8563 109.022 57.8211C109.007 57.7859 109 57.7482 109 57.7102V40.2898C109 40.213 109.031 40.1392 109.085 40.0849C109.139 40.0305 109.213 40 109.29 40H126.71C126.787 40 126.861 40.0305 126.915 40.0849C126.969 40.1392 127 40.213 127 40.2898V57.7102C127 57.7482 126.993 57.7859 126.978 57.8211C126.963 57.8563 126.942 57.8882 126.915 57.9151C126.888 57.942 126.856 57.9634 126.821 57.9779C126.786 57.9925 126.748 58 126.71 58ZM109.586 57.4204H126.419V40.5858H109.586V57.4204Z" fill="white"/>
</g>
<g filter="url(#filter12_d_29_56)">
<path d="M124.112 30C123.7 30.001 123.301 30.1395 122.973 30.3941C122.646 30.6488 122.41 31.0056 122.301 31.4101C122.191 31.8146 122.215 32.2445 122.368 32.634C122.521 33.0236 122.795 33.3513 123.147 33.5672L118.028 44.5726C117.995 44.6444 117.991 44.7267 118.017 44.8014C118.043 44.8762 118.098 44.9372 118.168 44.9712C118.238 45.0052 118.319 45.0093 118.392 44.9826C118.466 44.9558 118.526 44.9005 118.559 44.8288L123.694 33.7884C123.952 33.8493 124.221 33.8538 124.481 33.8016C124.742 33.7493 124.988 33.6415 125.205 33.4853C125.422 33.329 125.603 33.1277 125.738 32.8948C125.873 32.6618 125.958 32.4023 125.988 32.1335C126.018 31.8646 125.991 31.5923 125.911 31.3346C125.83 31.0769 125.696 30.8395 125.519 30.638C125.342 30.4365 125.125 30.2755 124.883 30.1656C124.64 30.0556 124.377 29.9992 124.112 30Z" fill="white"/>
</g>
<g filter="url(#filter13_d_29_56)">
<path d="M68.7115 181.248H62.2936V175.288C62.2965 175.251 62.2912 175.214 62.278 175.179C62.2649 175.145 62.2441 175.113 62.217 175.086C62.1899 175.059 62.1571 175.037 62.1207 175.022C62.0842 175.008 62.0448 175 62.0051 175C61.9653 175 61.9259 175.008 61.8895 175.022C61.853 175.037 61.8202 175.059 61.7931 175.086C61.766 175.113 61.7453 175.145 61.7321 175.179C61.7189 175.214 61.7136 175.251 61.7165 175.288V181.239H55.2878C55.2114 181.239 55.1383 181.268 55.0843 181.318C55.0303 181.368 55 181.435 55 181.506C55 181.577 55.0303 181.645 55.0843 181.695C55.1383 181.745 55.2114 181.773 55.2878 181.773H61.7072V187.733C61.7072 187.804 61.7375 187.872 61.7915 187.922C61.8454 187.972 61.9186 188 61.9949 188C62.0713 188 62.1445 187.972 62.1984 187.922C62.2524 187.872 62.2827 187.804 62.2827 187.733V181.782H68.713C68.7508 181.782 68.7882 181.775 68.8231 181.761C68.858 181.748 68.8896 181.728 68.9163 181.703C68.9429 181.678 68.964 181.649 68.9784 181.616C68.9928 181.584 69.0001 181.549 69 181.514C68.9999 181.479 68.9924 181.444 68.9778 181.412C68.9632 181.38 68.942 181.35 68.9152 181.326C68.8884 181.301 68.8566 181.281 68.8216 181.268C68.7867 181.255 68.7492 181.248 68.7115 181.248Z" fill="white"/>
</g>
<g filter="url(#filter14_d_29_56)">
<path d="M273.015 173.891C272.958 173.154 273.063 172.412 273.322 171.732C273.58 171.051 273.984 170.453 274.497 169.99C275.01 169.527 275.616 169.214 276.262 169.077C276.909 168.941 277.575 168.986 278.202 169.208C278.83 169.431 279.399 169.824 279.859 170.352C280.319 170.881 280.656 171.529 280.84 172.239C281.024 172.95 281.05 173.7 280.915 174.424C280.78 175.148 280.488 175.824 280.065 176.391C279.557 177.073 278.88 177.57 278.12 177.82C277.361 178.069 276.552 178.06 275.798 177.792C275.043 177.524 274.375 177.011 273.88 176.316C273.385 175.622 273.084 174.778 273.015 173.891ZM277.003 169.624C276.424 169.624 275.854 169.787 275.347 170.1C274.839 170.413 274.409 170.865 274.098 171.414C273.786 171.963 273.603 172.592 273.565 173.242C273.526 173.892 273.635 174.542 273.879 175.133C274.123 175.723 274.496 176.235 274.963 176.62C275.43 177.006 275.976 177.252 276.55 177.338C277.124 177.423 277.708 177.344 278.247 177.108C278.787 176.872 279.265 176.486 279.637 175.987C280.056 175.422 280.323 174.735 280.408 174.005C280.492 173.275 280.391 172.534 280.114 171.866C279.838 171.199 279.399 170.635 278.848 170.238C278.297 169.841 277.657 169.629 277.003 169.626V169.624Z" fill="white"/>
</g>
<g filter="url(#filter15_d_29_56)">
<path d="M187 107C186.985 106.731 186.821 106.477 186.541 106.291C186.261 106.104 185.888 106 185.5 106C185.112 106 184.739 106.104 184.459 106.291C184.179 106.477 184.015 106.731 184 107C184.015 107.269 184.179 107.523 184.459 107.709C184.739 107.896 185.112 108 185.5 108C185.888 108 186.261 107.896 186.541 107.709C186.821 107.523 186.985 107.269 187 107Z" fill="black"/>
</g>
<g filter="url(#filter16_d_29_56)">
<path d="M177 116C177 115.735 176.842 115.48 176.561 115.293C176.279 115.105 175.898 115 175.5 115C175.102 115 174.721 115.105 174.439 115.293C174.158 115.48 174 115.735 174 116C174 116.265 174.158 116.52 174.439 116.707C174.721 116.895 175.102 117 175.5 117C175.898 117 176.279 116.895 176.561 116.707C176.842 116.52 177 116.265 177 116Z" fill="black"/>
</g>
<g filter="url(#filter17_d_29_56)">
<path d="M184 127C184 126.735 183.895 126.48 183.707 126.293C183.52 126.105 183.265 126 183 126C182.735 126 182.48 126.105 182.293 126.293C182.105 126.48 182 126.735 182 127C182 127.265 182.105 127.52 182.293 127.707C182.48 127.895 182.735 128 183 128C183.265 128 183.52 127.895 183.707 127.707C183.895 127.52 184 127.265 184 127Z" fill="black"/>
</g>
<g filter="url(#filter18_d_29_56)">
<path d="M318.718 232.111H165.894C165.963 228.113 165.306 224.135 163.956 220.372L164.389 218.474C165.783 218.479 167.175 218.397 168.559 218.227C168.68 218.108 167.783 221.612 180.031 171.901L183.289 172.392L189.009 171.935C189.074 171.93 189.136 171.903 189.184 171.857C189.232 171.812 189.262 171.752 189.271 171.686C189.28 171.621 189.265 171.555 189.231 171.499C189.196 171.442 189.144 171.4 189.082 171.378L180.633 168.39C180.595 168.377 180.555 168.372 180.515 168.375C180.475 168.378 180.436 168.389 180.401 168.408C180.366 168.427 180.335 168.453 180.31 168.485C180.285 168.516 180.267 168.553 180.257 168.591C180.075 169.335 168.244 217.377 168.15 217.739C165.588 217.945 163.016 217.961 160.452 217.787L170.998 167.553C171.144 166.852 171.429 166.186 171.834 165.595C172.238 165.004 172.756 164.5 173.357 164.111C173.958 163.722 174.63 163.457 175.334 163.33C176.038 163.203 176.759 163.218 177.458 163.373C193.048 166.834 206.921 164.649 205.286 148.702H210.844C214.107 156.525 214.053 164.71 207.304 169.835L207.273 169.861L208.294 169.779C214.754 164.39 214.596 156.093 211.297 148.306C210.751 147.002 210.117 145.736 209.398 144.519C210.887 143.517 212.054 142.103 212.756 140.448C213.458 138.794 213.665 136.97 213.352 135.2C211.878 126.805 208.16 111.47 203.571 107.234C199.8 104.007 195.498 101.463 190.858 99.716C190.272 99.5052 189.75 99.1493 189.338 98.6815C188.927 98.2137 188.641 97.6492 188.505 97.0405C188.464 96.3026 188.267 88.8156 196.869 87.2347C197.325 87.1325 197.742 86.902 198.072 86.5703C198.401 86.2386 198.629 85.8195 198.729 85.3622C198.83 84.9049 198.797 84.4285 198.637 83.9889C198.476 83.5493 198.194 83.1648 197.823 82.8806C197.355 82.5282 196.786 82.3367 196.201 82.3348C196.393 81.8957 196.456 81.4114 196.385 80.9377C196.314 80.4639 196.111 80.0198 195.8 79.6564C195.489 79.2929 195.081 79.0249 194.625 78.883C194.168 78.7412 193.681 78.7312 193.219 78.8543C193.304 78.4197 193.274 77.9708 193.134 77.551C192.994 77.1312 192.747 76.755 192.419 76.4588C192.091 76.1626 191.692 75.9566 191.261 75.8608C190.83 75.765 190.381 75.7826 189.959 75.912C190.038 75.3367 189.92 74.7515 189.624 74.2524C189.327 73.7534 188.871 73.3699 188.329 73.1649C187.787 72.96 187.192 72.9456 186.64 73.1242C186.089 73.3029 185.615 73.6639 185.295 74.1481C184.249 77.2596 182.863 80.2459 181.164 83.0529C178.594 87.5655 176.918 93.2673 182.115 93.4197C181.971 95.0023 181.326 96.4973 180.276 97.6874C179.225 98.8776 177.824 99.7009 176.275 100.038C166.846 102.712 160.52 121.599 155.099 129.957L124.365 134.953C124.328 134.959 124.292 134.972 124.26 134.992C124.228 135.012 124.2 135.038 124.178 135.069C124.134 135.13 124.116 135.207 124.128 135.283C124.141 135.358 124.182 135.425 124.244 135.47C124.306 135.514 124.383 135.532 124.458 135.52L127.411 135.038C129.929 138.986 130.811 143.763 129.868 148.353C129.855 148.428 129.871 148.505 129.915 148.568C129.958 148.63 130.024 148.673 130.099 148.686C130.173 148.7 130.25 148.683 130.312 148.64C130.375 148.597 130.417 148.53 130.431 148.455C131.359 143.807 130.499 138.978 128.024 134.939C153.994 130.708 155.228 130.533 155.382 130.477C155.957 130.257 160.151 121.858 160.414 121.329C164.643 112.908 169.908 102.425 176.442 100.573C177.566 100.269 178.626 99.7628 179.57 99.0803L178.505 101.472C178.482 101.526 178.475 101.587 178.487 101.644C178.499 101.702 178.528 101.755 178.571 101.796C178.613 101.837 178.667 101.863 178.726 101.872C178.784 101.881 178.843 101.872 178.896 101.846L183.223 99.649C180.113 107.881 178.562 118.597 178.481 132.343C175.517 132.539 173.428 132.626 173.581 132.631C173.026 132.64 172.292 133.018 171.81 134.678C171.475 134.324 171.132 133.946 170.785 133.547C169.401 127.491 169.309 121.211 170.514 115.117C170.529 115.042 170.514 114.965 170.472 114.901C170.43 114.838 170.364 114.794 170.29 114.779C170.216 114.764 170.138 114.78 170.075 114.822C170.012 114.864 169.968 114.929 169.953 115.004C168.814 120.804 168.821 126.772 169.974 132.57C169.33 131.771 168.744 130.926 168.22 130.044C167.836 129.383 167.307 129.082 166.897 129.281C166.164 129.653 166.378 131.338 167.497 134.044C165.79 133.596 166.767 133.62 156.322 136.483C155.352 136.75 154.214 137.195 154.304 137.797C154.368 138.224 154.956 138.415 156.247 138.415C158.799 138.415 159.889 137.714 152.186 140.168C150.587 140.676 151.772 142.837 159.917 140.903C159.169 141.304 156.267 142.827 155.598 143.19C154.245 143.911 154.579 146.191 162.389 143.124C161.678 144.007 160.86 144.978 159.752 146.173C159.251 146.716 159.477 147.064 159.559 147.158C160.227 147.92 163.209 146.608 167.341 143.714C168.115 143.171 168.527 143.475 169.696 144.501C168.518 146.015 166.934 147.16 165.129 147.802C163.324 148.444 161.374 148.556 159.508 148.125C159.433 148.111 159.356 148.129 159.294 148.172C159.232 148.216 159.189 148.283 159.176 148.358C159.163 148.433 159.18 148.51 159.224 148.572C159.267 148.635 159.334 148.677 159.409 148.69C161.372 149.135 163.42 149.014 165.317 148.339C167.214 147.665 168.881 146.465 170.125 144.879C172.48 146.906 173.782 148.69 175.295 148.69H204.694C205.233 153.81 204.168 157.706 201.518 160.292C195.833 165.838 184.074 164.245 177.57 162.801C176.798 162.629 175.999 162.613 175.221 162.753C174.442 162.893 173.699 163.186 173.034 163.616C172.369 164.046 171.796 164.604 171.348 165.258C170.9 165.911 170.585 166.647 170.423 167.424L159.862 217.733C154.663 217.356 149.582 215.994 144.888 213.721C162.984 121.98 149.118 192.258 154.579 164.574C155.143 161.671 156.563 159.004 158.655 156.917C160.747 154.831 163.415 153.422 166.314 152.872C166.389 152.858 166.455 152.814 166.497 152.751C166.54 152.688 166.556 152.611 166.542 152.536C166.527 152.461 166.484 152.395 166.421 152.352C166.358 152.309 166.281 152.294 166.206 152.308C163.195 152.879 160.424 154.343 158.252 156.509C156.079 158.676 154.604 161.446 154.018 164.461L151.948 174.953L127.712 215.725C122.752 214.435 118.164 211.993 114.319 208.597L140.741 153.573C140.774 153.505 140.778 153.426 140.753 153.354C140.728 153.282 140.676 153.224 140.607 153.191C140.539 153.158 140.46 153.153 140.389 153.178C140.317 153.204 140.258 153.256 140.226 153.325C112.417 211.367 113.564 208.598 113.741 208.851C114.949 209.931 116.233 210.922 117.584 211.815L113.758 219.895C106.96 222.237 100.969 226.475 96.4894 232.111H30.3614C30.1501 232.111 29.6345 232.873 30.4238 232.918C33.9913 233.146 65.3993 232.826 318.715 232.826C319.093 232.822 319.096 232.111 318.718 232.111ZM208.925 144.821C209.552 145.886 210.115 146.989 210.608 148.123H205.218C205.144 147.513 205.046 146.885 204.926 146.239C206.324 145.981 207.673 145.501 208.92 144.816L208.925 144.821ZM188.35 98.6321L187.938 102.02L184.574 99.3486C185.858 99.2705 187.127 99.0297 188.35 98.6321ZM179.553 91.4912C178.516 89.2044 180.829 84.7268 181.918 82.9035C182.687 81.6153 184.144 79.702 185.578 80.1456C186.912 80.5633 187.654 82.6855 187.842 84.1094C187.994 85.3016 187.763 85.6339 188.052 86.073C188.356 86.5304 188.933 86.3017 189.401 86.0044C189.772 85.7696 190.145 85.3809 190.701 85.4617C191.781 85.6141 191.953 87.7835 189.333 89.0672L189.138 89.1587C188.32 89.5306 186.845 95.0083 188.285 98.0543C185.852 98.8166 182.994 99.2739 180.815 97.943C181.432 97.2321 181.912 96.4135 182.233 95.5282C185.221 92.7215 185.076 92.9197 185.021 92.6818C184.824 92.1955 184.413 92.7931 182.491 92.8343C181.262 92.8373 180.07 92.627 179.553 91.4912ZM180.494 98.4232C181.185 98.8412 181.95 99.1218 182.747 99.2495L179.352 100.974L180.494 98.4232ZM183.876 99.5255C188.286 103.032 188.008 102.847 188.16 102.847C188.23 102.848 188.298 102.822 188.35 102.776C188.402 102.729 188.436 102.665 188.445 102.596L188.881 99.0087C189.354 99.5771 189.974 100.005 190.672 100.245C195.241 101.965 199.476 104.469 203.189 107.645C207.086 111.242 210.9 124.496 212.794 135.288C213.17 137.445 212.726 139.665 211.548 141.51C210.371 143.354 208.546 144.689 206.434 145.249C200.745 146.809 194.91 147.77 189.022 148.118H183.373C184.565 141.688 183.966 136.505 181.586 132.702C187.458 132.33 193.297 131.55 199.06 130.367C199.135 130.351 199.199 130.306 199.24 130.242C199.281 130.177 199.295 130.1 199.279 130.025C199.263 129.951 199.218 129.886 199.154 129.845C199.09 129.804 199.013 129.79 198.939 129.806C197.932 130.027 196.93 130.227 195.949 130.403C195.544 126.072 194.796 121.78 193.712 117.568L193.694 117.521C193.671 117.47 193.633 117.427 193.585 117.397C193.537 117.367 193.482 117.352 193.426 117.354C193.37 117.356 193.316 117.374 193.27 117.407C193.224 117.44 193.189 117.485 193.169 117.538C193.124 117.69 193.149 116.91 193.149 130.874C188.629 131.562 183.594 132.004 179.048 132.311C179.129 118.469 180.71 107.735 183.876 99.5255ZM180.935 132.751C183.385 136.47 184.009 141.638 182.789 148.118H176.477C177.494 146.899 177.88 143.767 177.433 140.264L176.912 137.561C176.596 135.918 175.837 134.394 174.719 133.152C176.942 133.027 179.007 132.894 180.935 132.751ZM167.155 129.798C167.202 129.774 167.459 129.887 167.725 130.332C168.866 132.207 170.227 133.938 171.778 135.489C170.683 135.073 169.333 134.588 168.203 134.25C166.757 130.893 167.012 129.871 167.155 129.798ZM170.476 144.423C170.876 143.88 171.217 143.297 171.494 142.682C171.522 142.611 171.521 142.532 171.492 142.462C171.462 142.392 171.406 142.337 171.335 142.308C171.265 142.28 171.186 142.281 171.116 142.31C171.047 142.34 170.991 142.396 170.963 142.467C170.714 143.024 170.408 143.554 170.05 144.048C168.933 143.066 168.189 142.424 167.009 143.246C161.991 146.752 160.19 146.925 160.005 146.823C160.022 146.567 160.253 146.746 164.477 141.404C164.525 141.345 164.546 141.269 164.538 141.193C164.53 141.118 164.492 141.049 164.432 141.001C164.373 140.954 164.297 140.932 164.222 140.94C164.147 140.949 164.077 140.987 164.03 141.046L163.118 142.214C157.415 144.582 155.691 144.181 155.571 143.964C155.581 143.795 156.217 143.507 157.906 142.623C159.787 141.635 162.134 140.407 163.802 139.362C163.866 139.321 163.912 139.257 163.929 139.183C163.946 139.108 163.933 139.03 163.892 138.966C163.852 138.901 163.788 138.856 163.714 138.839C163.64 138.822 163.562 138.835 163.498 138.875C163.042 139.162 162.535 139.461 161.997 139.767C155.248 141.722 152.657 141.068 152.234 140.773C152.274 140.752 161.32 138.011 163.335 137.122C163.401 137.09 163.453 137.033 163.478 136.963C163.503 136.894 163.501 136.817 163.471 136.749C163.442 136.682 163.387 136.628 163.319 136.6C163.251 136.571 163.174 136.571 163.106 136.598C162.543 136.845 161.749 137.137 160.835 137.451C158.884 137.797 156.895 137.883 154.921 137.706C155.391 137.386 155.918 137.16 156.474 137.043C159.211 136.294 165.72 134.402 166.237 134.396C167.692 134.396 172.223 136.348 176.39 137.849L176.874 140.354C177.296 143.673 176.944 146.727 176.018 147.782C175.941 147.883 175.842 147.966 175.729 148.025C175.616 148.083 175.491 148.116 175.364 148.12C174.141 148.184 172.932 146.521 170.476 144.423ZM195.126 148.118C198.235 147.701 201.319 147.118 204.366 146.371C204.477 146.969 204.567 147.551 204.64 148.118H195.126ZM133.22 229.009C133.407 228.856 130.908 228.91 165.247 228.91C165.363 229.918 165.393 230.935 165.336 231.948C160.212 231.957 137.788 232.1 129.567 232.1C130.683 231.094 131.968 230.001 133.22 229.009ZM118.072 212.14C121.045 214.05 124.306 215.465 127.73 216.329C127.759 216.343 127.79 216.351 127.821 216.352C129.365 216.738 130.933 217.019 132.514 217.192L131.244 220.153C125.692 221.5 119.892 221.43 114.374 219.95L118.072 212.14ZM149.094 216.104C153.83 217.71 158.801 218.514 163.8 218.483L163.416 220.168C158.399 221.569 153.096 221.577 148.075 220.189L149.094 216.104ZM144.391 214.097C145.739 214.784 147.129 215.385 148.553 215.896L147.488 220.154C142.426 221.985 137.705 224.652 133.519 228.044C133.208 225.437 132.617 222.872 131.757 220.392L133.107 217.245C134.547 217.379 135.994 217.43 137.44 217.398C137.621 217.319 137.414 217.566 147.058 199.826C144.117 214.748 144.197 213.922 144.391 214.097ZM151.632 176.629L147.432 197.939L137.157 216.843C134.174 216.878 131.197 216.551 128.293 215.869L151.632 176.629ZM100.177 228.91H132.426C131.444 229.704 129.59 231.25 128.714 232.111H97.2193C98.1392 230.985 99.127 229.915 100.177 228.91Z" fill="black"/>
</g>
<g filter="url(#filter19_d_29_56)">
<path d="M226.875 100.82L189.478 99C189.821 99.2786 190.213 99.4926 190.634 99.6316L226.845 101.395C227.538 101.429 228.215 101.612 228.83 101.93C229.445 102.248 229.984 102.694 230.408 103.238C230.833 103.782 231.134 104.41 231.291 105.08C231.448 105.75 231.457 106.446 231.317 107.12L226.074 132.319L212.64 131.33C212.681 131.527 212.721 131.723 212.762 131.916L225.956 132.887L218.299 169.656L209.267 168.989C208.952 169.295 208.617 169.596 208.265 169.891L182.891 171.939L179.738 171.462C179.69 171.65 179.644 171.837 179.598 172.023L182.589 172.482V178.375L178.142 177.877L178 178.441L182.574 178.952L179.09 232.693C179.088 232.768 179.115 232.84 179.166 232.895C179.216 232.95 179.287 232.984 179.362 232.989C179.437 232.993 179.51 232.969 179.568 232.921C179.625 232.873 179.661 232.804 179.669 232.73L183.152 178.999C183.37 178.999 180.531 179.119 214.919 176.351C215.731 176.282 216.493 175.937 217.078 175.375L225.33 232.753C225.335 232.791 225.348 232.827 225.367 232.859C225.387 232.892 225.413 232.92 225.443 232.943C225.474 232.965 225.509 232.982 225.546 232.991C225.583 233 225.621 233.002 225.659 232.997C225.697 232.992 225.733 232.979 225.766 232.96C225.798 232.94 225.827 232.915 225.85 232.884C225.873 232.854 225.889 232.82 225.899 232.783C225.908 232.746 225.91 232.708 225.905 232.671L217.578 174.777C218.111 173.974 217.064 178.348 231.89 107.242C232.046 106.487 232.036 105.706 231.86 104.955C231.684 104.203 231.347 103.498 230.87 102.888C230.394 102.278 229.79 101.778 229.101 101.421C228.411 101.064 227.652 100.859 226.875 100.82ZM217.476 173.581C217.324 174.169 216.991 174.695 216.525 175.087C216.058 175.479 215.48 175.718 214.871 175.771C214.871 175.771 183.237 178.418 183.164 178.418V172.494C183.164 172.494 214.55 169.963 214.623 169.963L218.17 170.223L217.476 173.581Z" fill="white"/>
</g>
<g filter="url(#filter20_d_29_56)">
<path d="M289.191 148.393H274.214V145.525C274.214 145.334 274.138 145.151 274.003 145.016C273.869 144.88 273.686 144.804 273.495 144.803H261.891C262.183 144.532 262.394 144.187 262.501 143.804C262.609 143.421 262.609 143.016 262.501 142.633C262.393 142.25 262.182 141.905 261.89 141.635C261.598 141.365 261.238 141.181 260.848 141.104L278.496 99.9046C279.216 99.8564 279.891 99.5337 280.382 99.0028C280.872 98.4718 281.141 97.7729 281.133 97.0495C281.125 96.3261 280.841 95.6331 280.34 95.1129C279.838 94.5927 279.156 94.2847 278.435 94.2521L252.645 65.2592C252.943 64.7799 253.042 64.2025 252.92 63.651C252.798 63.0996 252.465 62.6181 251.993 62.31C251.52 62.002 250.946 61.892 250.393 62.0037C249.84 62.1153 249.354 62.4398 249.037 62.9073L244.86 60.8162L250.524 55.092C250.8 54.8134 251.019 54.4831 251.167 54.12C251.315 53.7568 251.391 53.368 251.389 52.9756C251.388 52.5832 251.309 52.195 251.157 51.8331C251.006 51.4712 250.785 51.1427 250.507 50.8664C250.229 50.5901 249.899 50.3714 249.537 50.2227C249.174 50.0741 248.786 49.9984 248.395 50C248.003 50.0017 247.616 50.0806 247.254 50.2322C246.893 50.3839 246.565 50.6053 246.29 50.8839L240.257 56.9848L225.973 60.8848C225.673 60.9668 225.399 61.1268 225.179 61.3486C224.959 61.5705 224.802 61.8463 224.723 62.1485C224.643 62.4506 224.645 62.7683 224.727 63.0697C224.809 63.371 224.969 63.6454 225.191 63.8651L229.071 67.7193C228.586 68.4495 228.369 69.3259 228.458 70.1986C228.546 71.0713 228.934 71.8861 229.556 72.5036C230.178 73.1212 230.995 73.5031 231.866 73.5841C232.738 73.6651 233.611 73.4402 234.335 72.9478L237.836 76.4284C238.057 76.6484 238.333 76.8062 238.634 76.8859C238.935 76.9656 239.252 76.9643 239.553 76.8822C239.853 76.8001 240.127 76.64 240.346 76.4182C240.566 76.1963 240.723 75.9205 240.802 75.6185L244.563 61.3134L248.785 63.4243C248.638 63.8754 248.645 64.3621 248.802 64.8093C248.96 65.2566 249.26 65.6394 249.656 65.8988C250.052 66.1582 250.522 66.2798 250.994 66.2446C251.466 66.2095 251.914 66.0197 252.267 65.7045L277.717 94.3085C277.069 94.4459 276.489 94.8068 276.08 95.3284C275.67 95.85 275.457 96.4991 275.476 97.1625C275.495 97.8259 275.747 98.4613 276.186 98.958C276.625 99.4547 277.225 99.7811 277.88 99.8802L260.236 141.07C259.822 141.109 259.428 141.266 259.101 141.524C258.774 141.782 258.529 142.129 258.395 142.524C258.261 142.918 258.244 143.343 258.345 143.747C258.447 144.151 258.664 144.517 258.968 144.801H247.364C247.174 144.802 246.991 144.879 246.856 145.014C246.722 145.15 246.646 145.333 246.646 145.524V148.391H242.878C243.144 148.088 243.29 147.698 243.289 147.295V144.022C244.404 143.944 245.448 143.445 246.211 142.626C246.973 141.807 247.397 140.729 247.397 139.609C247.397 138.489 246.973 137.411 246.211 136.592C245.448 135.773 244.404 135.274 243.289 135.197V131.922C243.289 131.477 243.113 131.05 242.799 130.736C242.485 130.421 242.059 130.244 241.615 130.244H231.216C230.772 130.244 230.346 130.421 230.032 130.736C229.718 131.05 229.542 131.477 229.542 131.922V147.298C229.541 147.701 229.687 148.09 229.953 148.393H133.534C133.402 148.027 133.16 147.712 132.843 147.488C132.526 147.265 132.147 147.145 131.759 147.144H128.016C127.489 147.14 126.981 146.943 126.588 146.59C126.195 146.238 125.945 145.753 125.885 145.228L124.317 130.063H144.948C146.361 130.063 147.716 129.5 148.715 128.499C149.715 127.498 150.276 126.14 150.276 124.725V88.1726C150.276 86.7568 149.715 85.399 148.715 84.3978C147.716 83.3967 146.361 82.8343 144.948 82.8343H93.1379C91.7248 82.8343 90.3696 83.3967 89.3705 84.3978C88.3713 85.399 87.8099 86.7568 87.8099 88.1726V124.732C87.8099 126.148 88.3713 127.506 89.3705 128.507C90.3696 129.508 91.7248 130.07 93.1379 130.07H110.892L109.137 148.393H64.804C64.0603 148.393 63.3471 148.689 62.8213 149.216C62.2954 149.743 62 150.457 62 151.202C62 151.947 62.2954 152.662 62.8213 153.189C63.3471 153.716 64.0603 154.012 64.804 154.012H95.1899C80.0555 237.972 81.0526 232.294 81.0526 232.713C81.0526 232.789 81.0828 232.862 81.1364 232.916C81.1901 232.97 81.2629 233 81.3388 233H86.4125C86.4797 233 86.5447 232.976 86.5962 232.933C86.6477 232.89 86.6823 232.83 86.6941 232.764L100.886 154.012H253.112L267.306 232.756C267.318 232.822 267.352 232.882 267.404 232.925C267.455 232.969 267.52 232.992 267.587 232.992H272.66C272.736 232.992 272.808 232.962 272.862 232.908C272.916 232.855 272.946 232.782 272.946 232.706C272.946 232.295 273.899 237.724 258.81 154.012H289.196C289.94 154.012 290.653 153.716 291.179 153.189C291.705 152.662 292 151.947 292 151.202C292 150.457 291.705 149.743 291.179 149.216C290.653 148.689 289.94 148.393 289.196 148.393H289.191ZM231.102 72.8273C230.657 72.6634 230.253 72.4023 229.921 72.0629C229.589 71.7235 229.337 71.3143 229.182 70.865C229.028 70.4157 228.975 69.9375 229.027 69.4652C229.08 68.9929 229.237 68.5382 229.487 68.1342L233.92 72.536C233.504 72.7982 233.033 72.9609 232.545 73.0114C232.056 73.0619 231.562 72.9989 231.102 72.8273ZM243.988 60.7186L240.662 57.6331C240.611 57.5802 240.582 57.51 240.582 57.4367C240.581 57.3634 240.608 57.2926 240.657 57.2386C240.707 57.1845 240.775 57.1514 240.848 57.146C240.921 57.1405 240.993 57.163 241.05 57.209L244.376 60.2961C244.423 60.3489 244.449 60.4173 244.448 60.4879C244.448 60.5586 244.422 60.6267 244.374 60.6791C244.327 60.7315 244.262 60.7645 244.192 60.7718C244.121 60.7791 244.051 60.7601 243.994 60.7186H243.988ZM250.838 65.6862C250.525 65.6865 250.219 65.5938 249.959 65.4198C249.698 65.2458 249.495 64.9983 249.376 64.7087C249.256 64.419 249.224 64.1003 249.285 63.7927C249.346 63.4852 249.497 63.2027 249.718 62.981C249.939 62.7592 250.221 62.6083 250.528 62.5472C250.835 62.4861 251.153 62.5176 251.442 62.6377C251.732 62.7579 251.979 62.9612 252.152 63.2221C252.326 63.4829 252.418 63.7895 252.418 64.103C252.418 64.3114 252.376 64.5175 252.296 64.7098C252.217 64.9021 252.1 65.0768 251.952 65.2238C251.805 65.3708 251.63 65.4873 251.438 65.5667C251.246 65.646 251.04 65.6866 250.832 65.6862H250.838ZM276.056 97.0814C276.056 96.6346 276.187 96.1978 276.435 95.8262C276.682 95.4545 277.034 95.1648 277.446 94.9935C277.858 94.8223 278.311 94.7773 278.749 94.8641C279.186 94.951 279.588 95.1658 279.903 95.4815C280.219 95.7972 280.434 96.1996 280.521 96.6377C280.608 97.0758 280.564 97.53 280.394 97.9429C280.223 98.3557 279.935 98.7087 279.564 98.9572C279.193 99.2056 278.758 99.3384 278.312 99.3387C278.015 99.3395 277.722 99.2817 277.447 99.1687C277.173 99.0557 276.924 98.8896 276.714 98.6799C276.504 98.4703 276.337 98.2212 276.223 97.9469C276.109 97.6726 276.05 97.3785 276.05 97.0814H276.056ZM243.298 135.772C244.265 135.844 245.168 136.28 245.827 136.991C246.487 137.703 246.853 138.638 246.853 139.609C246.853 140.58 246.487 141.515 245.827 142.227C245.168 142.939 244.265 143.374 243.298 143.447V135.772ZM93.1379 129.489C91.8804 129.489 90.6745 128.989 89.7841 128.099C88.8937 127.209 88.3913 126.003 88.3869 124.743V88.1726C88.3867 87.5472 88.5094 86.928 88.7481 86.3502C88.9867 85.7724 89.3366 85.2474 89.7778 84.8051C90.2189 84.3628 90.7427 84.0118 91.3193 83.7724C91.8958 83.5329 92.5138 83.4095 93.1379 83.4093H143.05C144.309 83.4109 145.515 83.9126 146.405 84.8044C147.295 85.6962 147.796 86.9053 147.798 88.1665V124.734C147.796 125.995 147.295 127.203 146.405 128.095C145.515 128.986 144.308 129.488 143.05 129.489H93.1379ZM109.715 148.393L111.47 130.063H121.852L123.854 148.393H109.715ZM258.854 143.219C258.854 142.906 258.947 142.6 259.121 142.34C259.294 142.079 259.541 141.877 259.83 141.757C260.118 141.637 260.436 141.605 260.743 141.667C261.049 141.728 261.331 141.878 261.552 142.1C261.773 142.321 261.923 142.603 261.984 142.91C262.045 143.218 262.014 143.536 261.894 143.825C261.775 144.114 261.572 144.362 261.312 144.536C261.052 144.71 260.747 144.803 260.434 144.803C260.015 144.803 259.613 144.636 259.316 144.339C259.019 144.042 258.852 143.64 258.851 143.219H258.854ZM273.645 148.393H247.221V145.525C247.221 145.294 245.64 145.373 273.494 145.373C273.534 145.373 273.573 145.389 273.601 145.418C273.63 145.446 273.646 145.485 273.646 145.525L273.645 148.393Z" fill="white"/>
</g>
<defs>
<filter id="filter0_d_29_56" x="159" y="115" width="82" height="64" filterUnits="userSpaceOnUse" color-interpolation-filters="sRGB">
<feFlood flood-opacity="0" result="BackgroundImageFix"/>
<feColorMatrix in="SourceAlpha" type="matrix" values="0 0 0 0 0 0 0 0 0 0 0 0 0 0 0 0 0 0 127 0" result="hardAlpha"/>
<feOffset/>
<feGaussianBlur stdDeviation="15"/>
<feComposite in2="hardAlpha" operator="out"/>
<feColorMatrix type="matrix" values="0 0 0 0 0.804283 0 0 0 0 0.8025 0 0 0 0 0.891667 0 0 0 1 0"/>
<feBlend mode="normal" in2="BackgroundImageFix" result="effect1_dropShadow_29_56"/>
<feBlend mode="normal" in="SourceGraphic" in2="effect1_dropShadow_29_56" result="shape"/>
</filter>
<filter id="filter1_d_29_56" x="59" y="109" width="76" height="70" filterUnits="userSpaceOnUse" color-interpolation-filters="sRGB">
<feFlood flood-opacity="0" result="BackgroundImageFix"/>
<feColorMatrix in="SourceAlpha" type="matrix" values="0 0 0 0 0 0 0 0 0 0 0 0 0 0 0 0 0 0 127 0" result="hardAlpha"/>
<feOffset/>
<feGaussianBlur stdDeviation="15"/>
<feComposite in2="hardAlpha" operator="out"/>
<feColorMatrix type="matrix" values="0 0 0 0 0.804283 0 0 0 0 0.8025 0 0 0 0 0.891667 0 0 0 1 0"/>
<feBlend mode="normal" in2="BackgroundImageFix" result="effect1_dropShadow_29_56"/>
<feBlend mode="normal" in="SourceGraphic" in2="effect1_dropShadow_29_56" result="shape"/>
</filter>
<filter id="filter2_d_29_56" x="67" y="103" width="73" height="69" filterUnits="userSpaceOnUse" color-interpolation-filters="sRGB">
<feFlood flood-opacity="0" result="BackgroundImageFix"/>
<feColorMatrix in="SourceAlpha" type="matrix" values="0 0 0 0 0 0 0 0 0 0 0 0 0 0 0 0 0 0 127 0" result="hardAlpha"/>
<feOffset/>
<feGaussianBlur stdDeviation="15"/>
<feComposite in2="hardAlpha" operator="out"/>
<feColorMatrix type="matrix" values="0 0 0 0 0.804283 0 0 0 0 0.8025 0 0 0 0 0.891667 0 0 0 1 0"/>
<feBlend mode="normal" in2="BackgroundImageFix" result="effect1_dropShadow_29_56"/>
<feBlend mode="normal" in="SourceGraphic" in2="effect1_dropShadow_29_56" result="shape"/>
</filter>
<filter id="filter3_d_29_56" x="74" y="114" width="66" height="63" filterUnits="userSpaceOnUse" color-interpolation-filters="sRGB">
<feFlood flood-opacity="0" result="BackgroundImageFix"/>
<feColorMatrix in="SourceAlpha" type="matrix" values="0 0 0 0 0 0 0 0 0 0 0 0 0 0 0 0 0 0 127 0" result="hardAlpha"/>
<feOffset/>
<feGaussianBlur stdDeviation="15"/>
<feComposite in2="hardAlpha" operator="out"/>
<feColorMatrix type="matrix" values="0 0 0 0 0.804283 0 0 0 0 0.8025 0 0 0 0 0.891667 0 0 0 1 0"/>
<feBlend mode="normal" in2="BackgroundImageFix" result="effect1_dropShadow_29_56"/>
<feBlend mode="normal" in="SourceGraphic" in2="effect1_dropShadow_29_56" result="shape"/>
</filter>
<filter id="filter4_d_29_56" x="67" y="102" width="74" height="70" filterUnits="userSpaceOnUse" color-interpolation-filters="sRGB">
<feFlood flood-opacity="0" result="BackgroundImageFix"/>
<feColorMatrix in="SourceAlpha" type="matrix" values="0 0 0 0 0 0 0 0 0 0 0 0 0 0 0 0 0 0 127 0" result="hardAlpha"/>
<feOffset/>
<feGaussianBlur stdDeviation="15"/>
<feComposite in2="hardAlpha" operator="out"/>
<feColorMatrix type="matrix" values="0 0 0 0 0.804283 0 0 0 0 0.8025 0 0 0 0 0.891667 0 0 0 1 0"/>
<feBlend mode="normal" in2="BackgroundImageFix" result="effect1_dropShadow_29_56"/>
<feBlend mode="normal" in="SourceGraphic" in2="effect1_dropShadow_29_56" result="shape"/>
</filter>
<filter id="filter5_d_29_56" x="74" y="114" width="66" height="64" filterUnits="userSpaceOnUse" color-interpolation-filters="sRGB">
<feFlood flood-opacity="0" result="BackgroundImageFix"/>
<feColorMatrix in="SourceAlpha" type="matrix" values="0 0 0 0 0 0 0 0 0 0 0 0 0 0 0 0 0 0 127 0" result="hardAlpha"/>
<feOffset/>
<feGaussianBlur stdDeviation="15"/>
<feComposite in2="hardAlpha" operator="out"/>
<feColorMatrix type="matrix" values="0 0 0 0 0.804283 0 0 0 0 0.8025 0 0 0 0 0.891667 0 0 0 1 0"/>
<feBlend mode="normal" in2="BackgroundImageFix" result="effect1_dropShadow_29_56"/>
<feBlend mode="normal" in="SourceGraphic" in2="effect1_dropShadow_29_56" result="shape"/>
</filter>
<filter id="filter6_d_29_56" x="84" y="124" width="159" height="127" filterUnits="userSpaceOnUse" color-interpolation-filters="sRGB">
<feFlood flood-opacity="0" result="BackgroundImageFix"/>
<feColorMatrix in="SourceAlpha" type="matrix" values="0 0 0 0 0 0 0 0 0 0 0 0 0 0 0 0 0 0 127 0" result="hardAlpha"/>
<feOffset/>
<feGaussianBlur stdDeviation="15"/>
<feComposite in2="hardAlpha" operator="out"/>
<feColorMatrix type="matrix" values="0 0 0 0 0.804283 0 0 0 0 0.8025 0 0 0 0 0.891667 0 0 0 1 0"/>
<feBlend mode="normal" in2="BackgroundImageFix" result="effect1_dropShadow_29_56"/>
<feBlend mode="normal" in="SourceGraphic" in2="effect1_dropShadow_29_56" result="shape"/>
</filter>
<filter id="filter7_d_29_56" x="122" y="100" width="85" height="79" filterUnits="userSpaceOnUse" color-interpolation-filters="sRGB">
<feFlood flood-opacity="0" result="BackgroundImageFix"/>
<feColorMatrix in="SourceAlpha" type="matrix" values="0 0 0 0 0 0 0 0 0 0 0 0 0 0 0 0 0 0 127 0" result="hardAlpha"/>
<feOffset/>
<feGaussianBlur stdDeviation="15"/>
<feComposite in2="hardAlpha" operator="out"/>
<feColorMatrix type="matrix" values="0 0 0 0 0.804283 0 0 0 0 0.8025 0 0 0 0 0.891667 0 0 0 1 0"/>
<feBlend mode="normal" in2="BackgroundImageFix" result="effect1_dropShadow_29_56"/>
<feBlend mode="normal" in="SourceGraphic" in2="effect1_dropShadow_29_56" result="shape"/>
</filter>
<filter id="filter8_d_29_56" x="149" y="50" width="73" height="79" filterUnits="userSpaceOnUse" color-interpolation-filters="sRGB">
<feFlood flood-opacity="0" result="BackgroundImageFix"/>
<feColorMatrix in="SourceAlpha" type="matrix" values="0 0 0 0 0 0 0 0 0 0 0 0 0 0 0 0 0 0 127 0" result="hardAlpha"/>
<feOffset/>
<feGaussianBlur stdDeviation="15"/>
<feComposite in2="hardAlpha" operator="out"/>
<feColorMatrix type="matrix" values="0 0 0 0 0.804283 0 0 0 0 0.8025 0 0 0 0 0.891667 0 0 0 1 0"/>
<feBlend mode="normal" in2="BackgroundImageFix" result="effect1_dropShadow_29_56"/>
<feBlend mode="normal" in="SourceGraphic" in2="effect1_dropShadow_29_56" result="shape"/>
</filter>
<filter id="filter9_d_29_56" x="79" y="71" width="72" height="73" filterUnits="userSpaceOnUse" color-interpolation-filters="sRGB">
<feFlood flood-opacity="0" result="BackgroundImageFix"/>
<feColorMatrix in="SourceAlpha" type="matrix" values="0 0 0 0 0 0 0 0 0 0 0 0 0 0 0 0 0 0 127 0" result="hardAlpha"/>
<feOffset/>
<feGaussianBlur stdDeviation="15"/>
<feComposite in2="hardAlpha" operator="out"/>
<feColorMatrix type="matrix" values="0 0 0 0 0.804283 0 0 0 0 0.8025 0 0 0 0 0.891667 0 0 0 1 0"/>
<feBlend mode="normal" in2="BackgroundImageFix" result="effect1_dropShadow_29_56"/>
<feBlend mode="normal" in="SourceGraphic" in2="effect1_dropShadow_29_56" result="shape"/>
</filter>
<filter id="filter10_d_29_56" x="86" y="66" width="65" height="64" filterUnits="userSpaceOnUse" color-interpolation-filters="sRGB">
<feFlood flood-opacity="0" result="BackgroundImageFix"/>
<feColorMatrix in="SourceAlpha" type="matrix" values="0 0 0 0 0 0 0 0 0 0 0 0 0 0 0 0 0 0 127 0" result="hardAlpha"/>
<feOffset/>
<feGaussianBlur stdDeviation="15"/>
<feComposite in2="hardAlpha" operator="out"/>
<feColorMatrix type="matrix" values="0 0 0 0 0.804283 0 0 0 0 0.8025 0 0 0 0 0.891667 0 0 0 1 0"/>
<feBlend mode="normal" in2="BackgroundImageFix" result="effect1_dropShadow_29_56"/>
<feBlend mode="normal" in="SourceGraphic" in2="effect1_dropShadow_29_56" result="shape"/>
</filter>
<filter id="filter11_d_29_56" x="79" y="10" width="78" height="78" filterUnits="userSpaceOnUse" color-interpolation-filters="sRGB">
<feFlood flood-opacity="0" result="BackgroundImageFix"/>
<feColorMatrix in="SourceAlpha" type="matrix" values="0 0 0 0 0 0 0 0 0 0 0 0 0 0 0 0 0 0 127 0" result="hardAlpha"/>
<feOffset/>
<feGaussianBlur stdDeviation="15"/>
<feComposite in2="hardAlpha" operator="out"/>
<feColorMatrix type="matrix" values="0 0 0 0 0.804283 0 0 0 0 0.8025 0 0 0 0 0.891667 0 0 0 1 0"/>
<feBlend mode="normal" in2="BackgroundImageFix" result="effect1_dropShadow_29_56"/>
<feBlend mode="normal" in="SourceGraphic" in2="effect1_dropShadow_29_56" result="shape"/>
</filter>
<filter id="filter12_d_29_56" x="88" y="0" width="68" height="75" filterUnits="userSpaceOnUse" color-interpolation-filters="sRGB">
<feFlood flood-opacity="0" result="BackgroundImageFix"/>
<feColorMatrix in="SourceAlpha" type="matrix" values="0 0 0 0 0 0 0 0 0 0 0 0 0 0 0 0 0 0 127 0" result="hardAlpha"/>
<feOffset/>
<feGaussianBlur stdDeviation="15"/>
<feComposite in2="hardAlpha" operator="out"/>
<feColorMatrix type="matrix" values="0 0 0 0 0.804283 0 0 0 0 0.8025 0 0 0 0 0.891667 0 0 0 1 0"/>
<feBlend mode="normal" in2="BackgroundImageFix" result="effect1_dropShadow_29_56"/>
<feBlend mode="normal" in="SourceGraphic" in2="effect1_dropShadow_29_56" result="shape"/>
</filter>
<filter id="filter13_d_29_56" x="25" y="145" width="74" height="73" filterUnits="userSpaceOnUse" color-interpolation-filters="sRGB">
<feFlood flood-opacity="0" result="BackgroundImageFix"/>
<feColorMatrix in="SourceAlpha" type="matrix" values="0 0 0 0 0 0 0 0 0 0 0 0 0 0 0 0 0 0 127 0" result="hardAlpha"/>
<feOffset/>
<feGaussianBlur stdDeviation="15"/>
<feComposite in2="hardAlpha" operator="out"/>
<feColorMatrix type="matrix" values="0 0 0 0 0.804283 0 0 0 0 0.8025 0 0 0 0 0.891667 0 0 0 1 0"/>
<feBlend mode="normal" in2="BackgroundImageFix" result="effect1_dropShadow_29_56"/>
<feBlend mode="normal" in="SourceGraphic" in2="effect1_dropShadow_29_56" result="shape"/>
</filter>
<filter id="filter14_d_29_56" x="243" y="139" width="68" height="69" filterUnits="userSpaceOnUse" color-interpolation-filters="sRGB">
<feFlood flood-opacity="0" result="BackgroundImageFix"/>
<feColorMatrix in="SourceAlpha" type="matrix" values="0 0 0 0 0 0 0 0 0 0 0 0 0 0 0 0 0 0 127 0" result="hardAlpha"/>
<feOffset/>
<feGaussianBlur stdDeviation="15"/>
<feComposite in2="hardAlpha" operator="out"/>
<feColorMatrix type="matrix" values="0 0 0 0 0.804283 0 0 0 0 0.8025 0 0 0 0 0.891667 0 0 0 1 0"/>
<feBlend mode="normal" in2="BackgroundImageFix" result="effect1_dropShadow_29_56"/>
<feBlend mode="normal" in="SourceGraphic" in2="effect1_dropShadow_29_56" result="shape"/>
</filter>
<filter id="filter15_d_29_56" x="154" y="76" width="63" height="62" filterUnits="userSpaceOnUse" color-interpolation-filters="sRGB">
<feFlood flood-opacity="0" result="BackgroundImageFix"/>
<feColorMatrix in="SourceAlpha" type="matrix" values="0 0 0 0 0 0 0 0 0 0 0 0 0 0 0 0 0 0 127 0" result="hardAlpha"/>
<feOffset/>
<feGaussianBlur stdDeviation="15"/>
<feComposite in2="hardAlpha" operator="out"/>
<feColorMatrix type="matrix" values="0 0 0 0 0.804283 0 0 0 0 0.8025 0 0 0 0 0.891667 0 0 0 1 0"/>
<feBlend mode="normal" in2="BackgroundImageFix" result="effect1_dropShadow_29_56"/>
<feBlend mode="normal" in="SourceGraphic" in2="effect1_dropShadow_29_56" result="shape"/>
</filter>
<filter id="filter16_d_29_56" x="144" y="85" width="63" height="62" filterUnits="userSpaceOnUse" color-interpolation-filters="sRGB">
<feFlood flood-opacity="0" result="BackgroundImageFix"/>
<feColorMatrix in="SourceAlpha" type="matrix" values="0 0 0 0 0 0 0 0 0 0 0 0 0 0 0 0 0 0 127 0" result="hardAlpha"/>
<feOffset/>
<feGaussianBlur stdDeviation="15"/>
<feComposite in2="hardAlpha" operator="out"/>
<feColorMatrix type="matrix" values="0 0 0 0 0.804283 0 0 0 0 0.8025 0 0 0 0 0.891667 0 0 0 1 0"/>
<feBlend mode="normal" in2="BackgroundImageFix" result="effect1_dropShadow_29_56"/>
<feBlend mode="normal" in="SourceGraphic" in2="effect1_dropShadow_29_56" result="shape"/>
</filter>
<filter id="filter17_d_29_56" x="152" y="96" width="62" height="62" filterUnits="userSpaceOnUse" color-interpolation-filters="sRGB">
<feFlood flood-opacity="0" result="BackgroundImageFix"/>
<feColorMatrix in="SourceAlpha" type="matrix" values="0 0 0 0 0 0 0 0 0 0 0 0 0 0 0 0 0 0 127 0" result="hardAlpha"/>
<feOffset/>
<feGaussianBlur stdDeviation="15"/>
<feComposite in2="hardAlpha" operator="out"/>
<feColorMatrix type="matrix" values="0 0 0 0 0.804283 0 0 0 0 0.8025 0 0 0 0 0.891667 0 0 0 1 0"/>
<feBlend mode="normal" in2="BackgroundImageFix" result="effect1_dropShadow_29_56"/>
<feBlend mode="normal" in="SourceGraphic" in2="effect1_dropShadow_29_56" result="shape"/>
</filter>
<filter id="filter18_d_29_56" x="0" y="43" width="349" height="220" filterUnits="userSpaceOnUse" color-interpolation-filters="sRGB">
<feFlood flood-opacity="0" result="BackgroundImageFix"/>
<feColorMatrix in="SourceAlpha" type="matrix" values="0 0 0 0 0 0 0 0 0 0 0 0 0 0 0 0 0 0 127 0" result="hardAlpha"/>
<feOffset/>
<feGaussianBlur stdDeviation="15"/>
<feComposite in2="hardAlpha" operator="out"/>
<feColorMatrix type="matrix" values="0 0 0 0 0.804283 0 0 0 0 0.8025 0 0 0 0 0.891667 0 0 0 1 0"/>
<feBlend mode="normal" in2="BackgroundImageFix" result="effect1_dropShadow_29_56"/>
<feBlend mode="normal" in="SourceGraphic" in2="effect1_dropShadow_29_56" result="shape"/>
</filter>
<filter id="filter19_d_29_56" x="148" y="69" width="114" height="194" filterUnits="userSpaceOnUse" color-interpolation-filters="sRGB">
<feFlood flood-opacity="0" result="BackgroundImageFix"/>
<feColorMatrix in="SourceAlpha" type="matrix" values="0 0 0 0 0 0 0 0 0 0 0 0 0 0 0 0 0 0 127 0" result="hardAlpha"/>
<feOffset/>
<feGaussianBlur stdDeviation="15"/>
<feComposite in2="hardAlpha" operator="out"/>
<feColorMatrix type="matrix" values="0 0 0 0 0.804283 0 0 0 0 0.8025 0 0 0 0 0.891667 0 0 0 1 0"/>
<feBlend mode="normal" in2="BackgroundImageFix" result="effect1_dropShadow_29_56"/>
<feBlend mode="normal" in="SourceGraphic" in2="effect1_dropShadow_29_56" result="shape"/>
</filter>
<filter id="filter20_d_29_56" x="32" y="20" width="290" height="243" filterUnits="userSpaceOnUse" color-interpolation-filters="sRGB">
<feFlood flood-opacity="0" result="BackgroundImageFix"/>
<feColorMatrix in="SourceAlpha" type="matrix" values="0 0 0 0 0 0 0 0 0 0 0 0 0 0 0 0 0 0 127 0" result="hardAlpha"/>
<feOffset/>
<feGaussianBlur stdDeviation="15"/>
<feComposite in2="hardAlpha" operator="out"/>
<feColorMatrix type="matrix" values="0 0 0 0 0.804283 0 0 0 0 0.8025 0 0 0 0 0.891667 0 0 0 1 0"/>
<feBlend mode="normal" in2="BackgroundImageFix" result="effect1_dropShadow_29_56"/>
<feBlend mode="normal" in="SourceGraphic" in2="effect1_dropShadow_29_56" result="shape"/>
</filter>
</defs>
</svg>
