<svg width="46" height="53" viewBox="0 0 46 53" fill="none" xmlns="http://www.w3.org/2000/svg">
<g clip-path="url(#clip0_37_62)">
<path d="M26.2857 3.3125V5.3C33.7812 6.83514 39.4286 13.5191 39.4286 21.5312V23.4773C39.4286 28.3529 41.2049 33.0422 44.4085 36.6859L45.1683 37.5451C46.0308 38.5285 46.2464 39.9156 45.7125 41.1061C45.1786 42.2965 44.008 43.0625 42.7143 43.0625H3.28569C1.99194 43.0625 0.818427 42.2965 0.2884 41.1061C-0.241627 39.9156 -0.0296269 38.5285 0.830029 37.5451L1.59149 36.6859C4.79917 33.0422 6.57141 28.3529 6.57141 23.4773V21.5312C6.57141 13.5191 12.1263 6.83514 19.7143 5.3V3.3125C19.7143 1.48338 21.1826 0 23 0C24.8174 0 26.2857 1.48338 26.2857 3.3125ZM23 53C21.2544 53 19.5808 52.3064 18.3486 51.0643C17.1165 49.8221 16.4286 48.0416 16.4286 46.375H29.5714C29.5714 48.0416 28.8835 49.8221 27.6513 51.0643C26.4192 52.3064 24.6531 53 23 53Z" fill="#5072CA"/>
</g>
<defs>
<clipPath id="clip0_37_62">
<rect width="46" height="53" fill="white"/>
</clipPath>
</defs>
</svg>
