<svg width="364" height="315" viewBox="0 0 364 315" fill="none" xmlns="http://www.w3.org/2000/svg">
<g filter="url(#filter0_d_29_55)">
<path d="M101.125 165.453C110.479 160.776 120.297 155.443 129.552 150.029C129.622 149.997 129.701 149.991 129.775 150.012C129.848 150.033 129.912 150.08 129.952 150.143C129.993 150.206 130.008 150.282 129.996 150.355C129.983 150.429 129.943 150.495 129.883 150.542C120.611 155.955 110.777 161.305 101.422 165.981C101.352 166.006 101.274 166.006 101.204 165.981C101.133 165.955 101.074 165.905 101.038 165.841C101.002 165.777 100.991 165.703 101.007 165.632C101.023 165.56 101.065 165.497 101.125 165.453Z" fill="white"/>
</g>
<g filter="url(#filter1_d_29_55)">
<path d="M156.895 96.6914C147.462 86.4785 134.851 79.7805 121.128 77.6941C107.405 75.6078 93.3821 78.2567 81.3556 85.2072C69.3291 92.1576 60.0115 102.998 54.9284 115.953C49.8452 128.908 49.2977 143.21 53.3754 156.518C16.9943 186.183 23.9126 198.7 68.3305 181.632C74.518 187.982 82.0129 192.902 90.2918 196.046C98.5708 199.191 107.434 200.485 116.263 199.838C116.308 199.848 116.354 199.849 116.399 199.839C116.444 199.829 116.485 199.808 116.521 199.78C116.557 199.751 116.586 199.715 116.606 199.674C116.626 199.633 116.636 199.587 116.636 199.541C116.636 199.496 116.626 199.45 116.606 199.409C116.586 199.368 116.557 199.331 116.521 199.303C116.485 199.274 116.444 199.254 116.399 199.244C116.354 199.234 116.308 199.234 116.263 199.245C107.57 199.874 98.8431 198.604 90.6862 195.521C82.5294 192.439 75.1364 187.618 69.0175 181.391C73.2676 179.789 77.8052 177.85 82.5666 175.702C82.6109 175.693 82.6525 175.674 82.6885 175.646C82.7246 175.619 82.754 175.584 82.7747 175.543C82.7954 175.503 82.8068 175.458 82.8082 175.413C82.8095 175.368 82.8007 175.323 82.7825 175.281C82.7642 175.239 82.7369 175.203 82.7026 175.173C82.6683 175.143 82.6278 175.122 82.5842 175.11C82.5405 175.098 82.4947 175.096 82.4502 175.104C82.4057 175.112 82.3636 175.131 82.3269 175.157C77.4803 177.294 72.8894 179.217 68.5542 180.927C57.4619 169.623 51.2712 154.381 51.3303 138.521C51.4026 123.887 56.7258 109.768 66.3258 98.749C75.9258 87.7295 89.1607 80.5459 103.608 78.5126C118.056 76.4793 132.751 79.7323 145.004 87.6763C157.256 95.6203 166.247 107.724 170.332 121.773C165.379 125.812 159.723 130.075 153.427 134.498C153.387 134.516 153.351 134.543 153.322 134.577C153.293 134.61 153.272 134.65 153.26 134.693C153.248 134.735 153.246 134.78 153.253 134.824C153.26 134.868 153.276 134.909 153.301 134.946C153.326 134.983 153.358 135.014 153.396 135.037C153.434 135.059 153.477 135.074 153.521 135.078C153.565 135.083 153.609 135.078 153.651 135.063C153.693 135.049 153.731 135.026 153.763 134.995C160.01 130.603 165.602 126.389 170.507 122.414C174.305 136.306 173.071 151.098 167.024 164.163C166.99 164.237 166.987 164.322 167.016 164.399C167.044 164.475 167.102 164.538 167.176 164.572C167.25 164.606 167.335 164.609 167.411 164.58C167.488 164.552 167.55 164.494 167.584 164.419C173.715 151.137 174.933 136.098 171.019 121.997C206.697 92.8611 199.954 80.4246 156.895 96.6914ZM31.0866 186.263C28.4503 181.68 36.8386 170.798 53.5671 157.143C56.4189 166.175 61.3443 174.409 67.947 181.183C47.6874 188.86 33.7868 190.927 31.0866 186.263ZM170.907 121.356C168.271 112.374 163.626 104.114 157.326 97.2043C199.331 81.3541 205.77 92.7329 170.907 121.356Z" fill="white"/>
</g>
<g filter="url(#filter2_d_29_55)">
<path d="M275.694 133.355L275.223 130.108C275.124 129.472 275.167 128.821 275.349 128.204C275.532 127.586 275.849 127.017 276.278 126.536C272.741 117.884 265.295 122.949 266.544 130.563C266.301 130.887 266.252 132.186 264.5 130.222C261.872 127.3 258.514 132.153 263.786 135.969C265.879 144.345 263.786 144.767 261.872 143.03C263.124 144.248 264.445 145.392 265.83 146.456C266.61 147.103 267.526 147.565 268.509 147.806C269.492 148.048 270.518 148.064 271.508 147.852C271.302 146.534 271.302 145.192 271.508 143.875C274.396 144.508 278.111 143.875 277.997 136.65C277.381 136.322 276.851 135.852 276.451 135.279C276.05 134.706 275.791 134.047 275.694 133.355Z" fill="#AD72DC"/>
</g>
<g filter="url(#filter3_d_29_55)">
<path d="M326.021 89.6026C328.42 81.0168 326.774 73.9804 324.72 82.9373C325.77 75.336 324.5 71.7855 322.776 78.709C322.368 80.3229 321.96 81.7592 321.505 83.0341C321.557 82.002 321.557 80.9677 321.505 79.9355C321.113 73.9965 319.749 74.4 318.824 79.5159C318.407 81.9146 317.852 84.2857 317.162 86.6169C317.002 86.2104 316.814 85.8167 316.598 85.4388C313.462 79.6612 312.364 79.8064 313.666 86.4233C314.763 91.9911 311 99.1243 311 99.1243C314.862 100.734 318.181 103.472 320.549 107C320.549 107 326.272 97.4137 327.636 90.8614C328.828 85.2936 326.774 87.8112 326.021 89.6026Z" fill="#AD72DC"/>
</g>
<g filter="url(#filter4_d_29_55)">
<path d="M221.113 87.0015C220.561 85.9984 220.33 84.8562 220.449 83.7228C220.567 82.5893 221.03 81.5169 221.777 80.6443C224.404 77.5611 227.938 72.9362 226.771 71.6807C224.955 69.7576 219.216 76.3055 216.168 76.6711C215.082 76.7982 214.207 73.4925 214.028 72.38C213.688 70.2185 212.553 62.9554 212.407 62.2243C211.483 55.597 209.165 56.7254 209.165 62.574C209.165 67.9776 209.165 71.5376 209.165 71.7283C208.111 68.4385 205.631 60.8099 205.436 60.1741C203.475 53.817 201.4 55.2314 202.372 60.9847C203.296 66.4837 204.301 73.1905 204.301 73.1905C203.361 71.2357 201.853 67.914 200.265 63.6547C197.914 57.377 196.163 58.8868 197.266 64.7036C198.109 69.0742 199.162 73.3812 199.649 74.9705C198.418 73.0436 197.335 71.0304 196.406 68.9471C193.732 62.7488 192.078 64.4494 193.553 70.3298C194.639 74.605 195.563 76.6869 197.752 84.3474C198.773 87.8915 202.243 97.475 205.258 101.989C210.899 102.291 220.886 96.5532 223.301 91.5628C223.366 91.4038 221.226 87.1922 221.113 87.0015Z" fill="#AD72DC"/>
</g>
<g filter="url(#filter5_d_29_55)">
<path d="M302.725 42.025C300.257 42.1784 297.891 43.0599 295.924 44.5583C293.958 46.0566 292.48 48.1043 291.677 50.4426C290.874 52.7808 290.783 55.3046 291.415 57.6947C292.047 60.0847 293.373 62.2338 295.226 63.8701C297.08 65.5064 299.376 66.5565 301.826 66.8875C304.276 67.2184 306.77 66.8155 308.991 65.7296C311.212 64.6438 313.061 62.9237 314.304 60.787C315.547 58.6502 316.129 56.1928 315.976 53.7253C315.876 52.0863 315.454 50.4831 314.734 49.0074C314.013 47.5318 313.009 46.2127 311.778 45.1259C310.547 44.039 309.114 43.2057 307.56 42.6736C306.007 42.1415 304.364 41.9211 302.725 42.025ZM296.938 60.3427C296.443 60.1917 296.004 59.8974 295.675 59.4969C295.347 59.0964 295.145 58.6077 295.094 58.0925C295.043 57.5772 295.146 57.0584 295.39 56.6016C295.634 56.1448 296.007 55.7703 296.463 55.5255C296.92 55.2807 297.438 55.1765 297.954 55.226C298.469 55.2755 298.958 55.4766 299.36 55.8038C299.761 56.131 300.056 56.5697 300.209 57.0646C300.361 57.5594 300.363 58.0883 300.215 58.5845C300.012 59.251 299.553 59.8099 298.939 60.1394C298.325 60.4688 297.606 60.5419 296.938 60.3427ZM305.122 53.07C304.408 52.8436 303.776 52.4112 303.306 51.827C302.837 51.2428 302.55 50.5329 302.483 49.7864C302.415 49.0399 302.57 48.2901 302.927 47.6311C303.284 46.972 303.828 46.4332 304.49 46.0822C305.152 45.7312 305.903 45.5836 306.649 45.6581C307.395 45.7325 308.102 46.0257 308.682 46.5007C309.262 46.9757 309.689 47.6114 309.909 48.328C310.128 49.0446 310.132 49.8101 309.918 50.5285C309.774 51.0128 309.535 51.4634 309.214 51.8542C308.894 52.2451 308.499 52.5682 308.053 52.8048C307.607 53.0414 307.118 53.1867 306.614 53.2322C306.111 53.2777 305.604 53.2226 305.122 53.07ZM307.12 61.6854C306.754 61.5752 306.446 61.3238 306.264 60.9866C306.083 60.6493 306.043 60.2539 306.153 59.8872C306.264 59.5205 306.515 59.2126 306.852 59.0313C307.189 58.8499 307.585 58.8099 307.952 58.9202C308.318 59.0261 308.628 59.2734 308.812 59.6077C308.997 59.9419 309.041 60.3357 308.935 60.7024C308.829 61.0691 308.581 61.3786 308.247 61.563C307.913 61.7473 307.519 61.7914 307.152 61.6854H307.12Z" fill="white"/>
</g>
<g filter="url(#filter6_d_29_55)">
<path d="M140 113.943C134.101 114.643 128.448 116.717 123.498 120C122.392 116.026 107.911 88.8324 109.065 86.7011C111.214 82.5668 122.905 97.9183 130.667 101.428C138.428 104.937 138.028 110.065 140 113.943Z" fill="#AD72DC"/>
</g>
<g filter="url(#filter7_d_29_55)">
<path d="M111 170.567C107.216 174.71 104.382 179.636 102.695 185C101.42 183.701 70.0804 171.193 70.0007 168.098C69.8732 163.431 87.6788 168.402 95.9361 166.494C104.193 164.586 107.063 168.691 111 170.567Z" fill="#AD72DC"/>
</g>
<g filter="url(#filter8_d_29_55)">
<path d="M207.031 90.6274C206.867 87.7674 207.353 84.9074 208.456 82.2313C209.559 79.5553 211.256 77.1224 213.437 75.0893C213.499 75.0321 213.583 75 213.67 75C213.758 75 213.842 75.0321 213.903 75.0893C213.965 75.1465 214 75.224 214 75.3049C214 75.3857 213.965 75.4633 213.903 75.5205C211.782 77.4966 210.131 79.8617 209.057 82.4636C207.984 85.0655 207.511 87.8464 207.67 90.6274C207.681 90.672 207.681 90.7183 207.671 90.7629C207.66 90.8075 207.638 90.8493 207.608 90.8851C207.577 90.9209 207.538 90.9499 207.493 90.9698C207.449 90.9897 207.4 91 207.35 91C207.301 91 207.252 90.9897 207.208 90.9698C207.163 90.9499 207.124 90.9209 207.093 90.8851C207.063 90.8493 207.041 90.8075 207.03 90.7629C207.02 90.7183 207.02 90.672 207.031 90.6274Z" fill="#CBD5FB"/>
</g>
<g filter="url(#filter9_d_29_55)">
<path d="M119.995 235.008C119.98 234.93 119.934 234.86 119.868 234.815C119.801 234.77 119.72 234.753 119.641 234.767L115.408 235.505C114.431 235.673 113.427 235.448 112.616 234.88C111.804 234.312 111.252 233.446 111.079 232.473L110.339 228.254C110.324 228.173 110.277 228.101 110.209 228.055C110.141 228.008 110.058 227.99 109.977 228.005C109.896 228.02 109.824 228.066 109.777 228.134C109.73 228.202 109.712 228.285 109.727 228.366L110.484 232.585C110.569 233.068 110.558 233.563 110.452 234.041C110.345 234.519 110.145 234.972 109.862 235.373C109.579 235.774 109.22 236.115 108.805 236.378C108.389 236.64 107.926 236.818 107.442 236.901L103.209 237.655C103.139 237.678 103.08 237.726 103.042 237.79C103.005 237.854 102.992 237.928 103.005 238.001C103.019 238.073 103.059 238.138 103.117 238.184C103.175 238.23 103.248 238.253 103.322 238.249L107.555 237.495C108.532 237.327 109.536 237.552 110.347 238.12C111.158 238.688 111.711 239.554 111.884 240.527L112.624 244.746C112.639 244.827 112.686 244.899 112.754 244.945C112.821 244.992 112.905 245.01 112.986 244.995C113.067 244.98 113.139 244.934 113.186 244.866C113.233 244.798 113.251 244.715 113.236 244.634L112.479 240.415C112.311 239.44 112.536 238.44 113.106 237.631C113.676 236.822 114.545 236.271 115.521 236.099L119.754 235.361C119.832 235.345 119.902 235.3 119.947 235.234C119.992 235.168 120.009 235.087 119.995 235.008ZM111.948 238.906C111.63 238.404 111.214 237.971 110.724 237.632C110.235 237.293 109.683 237.056 109.1 236.933C109.606 236.621 110.044 236.21 110.387 235.725C110.73 235.24 110.971 234.69 111.095 234.11C111.408 234.613 111.821 235.047 112.308 235.387C112.795 235.726 113.346 235.963 113.928 236.083C113.413 236.387 112.968 236.796 112.622 237.282C112.275 237.768 112.035 238.322 111.916 238.906H111.948Z" fill="white"/>
</g>
<g filter="url(#filter10_d_29_55)">
<path d="M177.586 52.6825L174.686 53.2063C174.036 53.3173 173.369 53.1647 172.829 52.7815C172.289 52.3983 171.92 51.8153 171.802 51.1587L171.284 48.2063C171.261 48.137 171.215 48.0785 171.152 48.0415C171.09 48.0046 171.017 47.9917 170.946 48.0053C170.875 48.0188 170.812 48.0579 170.767 48.1153C170.723 48.1727 170.7 48.2445 170.704 48.3174L171.222 51.2539C171.335 51.9127 171.186 52.5903 170.807 53.138C170.428 53.6856 169.85 54.0584 169.199 54.1746L166.299 54.6984C166.256 54.6982 166.213 54.7076 166.174 54.7258C166.134 54.7441 166.1 54.7708 166.071 54.8041C166.043 54.8374 166.023 54.8765 166.011 54.9186C165.999 54.9608 165.997 55.0051 166.004 55.0483C166.011 55.0915 166.027 55.1327 166.051 55.169C166.075 55.2053 166.107 55.2358 166.144 55.2584C166.181 55.281 166.223 55.2951 166.266 55.2998C166.309 55.3046 166.352 55.2998 166.393 55.2857L169.309 54.7619C169.638 54.6934 169.978 54.6935 170.307 54.7621C170.636 54.8307 170.948 54.9664 171.224 55.1609C171.499 55.3554 171.733 55.6047 171.91 55.8936C172.088 56.1825 172.206 56.5049 172.256 56.8413L172.773 59.7937C172.796 59.863 172.843 59.9215 172.905 59.9585C172.967 59.9954 173.041 60.0083 173.111 59.9947C173.182 59.9812 173.246 59.9421 173.29 59.8847C173.335 59.8273 173.357 59.7555 173.353 59.6826L172.852 56.7302C172.793 56.4059 172.799 56.073 172.868 55.7508C172.938 55.4287 173.069 55.1237 173.256 54.8535C173.443 54.5833 173.68 54.3534 173.956 54.1769C174.231 54.0004 174.537 53.8809 174.858 53.8254L177.774 53.3016C177.855 53.2763 177.923 53.2195 177.963 53.1436C178.003 53.0677 178.011 52.9789 177.986 52.8968C177.961 52.8147 177.905 52.746 177.83 52.7058C177.755 52.6656 177.667 52.6573 177.586 52.6825ZM172.256 55.4445C171.843 54.8598 171.246 54.4345 170.563 54.2381C171.14 53.8197 171.561 53.2153 171.755 52.5238C172.168 53.1084 172.765 53.5337 173.448 53.7302C172.87 54.1485 172.45 54.7529 172.256 55.4445Z" fill="#2084F3"/>
</g>
<g filter="url(#filter11_d_29_55)">
<path d="M333.674 142.676L326.357 143.965C325.493 144.126 324.606 144.115 323.746 143.932C322.887 143.75 322.072 143.4 321.348 142.902C320.624 142.404 320.005 141.768 319.527 141.03C319.049 140.293 318.722 139.468 318.563 138.604L317.274 131.286C317.272 131.243 317.261 131.201 317.241 131.163C317.221 131.125 317.193 131.091 317.159 131.065C317.125 131.038 317.086 131.019 317.044 131.009C317.002 130.998 316.959 130.997 316.916 131.005C316.874 131.013 316.834 131.03 316.799 131.055C316.763 131.08 316.734 131.112 316.712 131.149C316.69 131.186 316.677 131.228 316.672 131.271C316.668 131.314 316.672 131.357 316.686 131.398L317.974 138.699C318.28 140.45 317.878 142.25 316.859 143.705C315.839 145.161 314.284 146.152 312.534 146.463L305.233 147.751C305.167 147.767 305.108 147.804 305.065 147.858C305.023 147.911 305 147.977 305 148.045C305 148.114 305.023 148.18 305.065 148.233C305.108 148.287 305.167 148.324 305.233 148.34C305.408 148.34 306.919 148.053 312.598 147.051C314.344 146.746 316.14 147.145 317.592 148.162C319.044 149.179 320.034 150.73 320.344 152.476L321.633 159.793C321.656 159.863 321.703 159.921 321.766 159.958C321.83 159.995 321.904 160.008 321.976 159.995C322.048 159.981 322.112 159.942 322.157 159.884C322.202 159.827 322.225 159.755 322.221 159.682L320.933 152.364C320.628 150.616 321.03 148.817 322.05 147.365C323.07 145.912 324.625 144.924 326.373 144.617L333.674 143.329C333.76 143.329 333.843 143.294 333.904 143.233C333.966 143.172 334 143.089 334 143.003C334 142.916 333.966 142.833 333.904 142.772C333.843 142.711 333.76 142.676 333.674 142.676ZM320.376 150.312C319.823 149.215 319.003 148.274 317.991 147.576C316.979 146.879 315.809 146.446 314.586 146.319C315.669 145.776 316.6 144.973 317.297 143.982C317.994 142.991 318.434 141.843 318.579 140.64C319.12 141.727 319.924 142.66 320.919 143.355C321.914 144.049 323.067 144.484 324.273 144.617C323.198 145.169 322.276 145.977 321.588 146.971C320.9 147.964 320.467 149.112 320.328 150.312H320.376Z" fill="white"/>
</g>
<g filter="url(#filter12_d_29_55)">
<path d="M280.596 219.019L223.878 241.959C223.813 241.995 223.763 242.053 223.739 242.122C223.714 242.191 223.715 242.266 223.743 242.334C223.77 242.402 223.822 242.458 223.889 242.491C223.955 242.524 224.031 242.532 224.103 242.514L276.703 221.237L210.479 259.054C210.444 259.074 210.413 259.1 210.389 259.131C210.364 259.163 210.346 259.199 210.336 259.237C210.325 259.275 210.323 259.315 210.328 259.354C210.333 259.394 210.346 259.431 210.366 259.466C210.386 259.5 210.413 259.53 210.445 259.554C210.477 259.579 210.513 259.596 210.552 259.607C210.591 259.617 210.631 259.62 210.671 259.614C210.711 259.609 210.75 259.596 210.784 259.577L276.993 221.759L195.133 284.45C195.078 284.485 195.036 284.538 195.015 284.599C194.994 284.66 194.995 284.727 195.017 284.788C195.04 284.848 195.083 284.9 195.139 284.934C195.195 284.967 195.261 284.981 195.326 284.973C195.487 284.973 191.031 288.348 280.886 219.541C281.175 219.209 280.854 218.923 280.596 219.019Z" fill="white"/>
</g>
<g filter="url(#filter13_d_29_55)">
<path d="M280.489 226C279.068 225.998 277.677 225.619 276.478 224.908C275.279 224.197 274.321 223.183 273.715 221.983C273.11 220.784 272.882 219.448 273.058 218.132C273.234 216.817 273.807 215.574 274.71 214.551C275.613 213.527 276.809 212.764 278.159 212.35C279.508 211.936 280.956 211.888 282.334 212.213C283.712 212.537 284.962 213.22 285.94 214.181C286.918 215.143 287.583 216.345 287.858 217.646C288.073 218.661 288.043 219.708 287.772 220.712C287.501 221.715 286.995 222.65 286.29 223.449C285.585 224.248 284.699 224.891 283.696 225.333C282.693 225.774 281.598 226.002 280.489 226ZM280.489 212.563C279.071 212.563 277.688 212.971 276.528 213.732C275.369 214.493 274.489 215.57 274.01 216.815C273.531 218.06 273.476 219.413 273.852 220.689C274.229 221.964 275.018 223.1 276.112 223.942C277.206 224.783 278.552 225.288 279.965 225.388C281.379 225.488 282.791 225.178 284.009 224.501C285.226 223.824 286.19 222.812 286.768 221.604C287.347 220.396 287.511 219.051 287.239 217.752C286.937 216.289 286.101 214.969 284.873 214.018C283.645 213.066 282.101 212.541 280.505 212.533L280.489 212.563Z" fill="white"/>
</g>
<g filter="url(#filter14_d_29_55)">
<path d="M268 152.5C268 152.898 267.842 153.279 267.561 153.561C267.279 153.842 266.898 154 266.5 154C266.102 154 265.721 153.842 265.439 153.561C265.158 153.279 265 152.898 265 152.5C265 152.102 265.158 151.721 265.439 151.439C265.721 151.158 266.102 151 266.5 151C266.898 151 267.279 151.158 267.561 151.439C267.842 151.721 268 152.102 268 152.5Z" fill="#CBD5FB"/>
</g>
<g filter="url(#filter15_d_29_55)">
<path d="M289 145C288.959 145.275 288.783 145.529 288.507 145.713C288.23 145.898 287.871 146 287.5 146C287.129 146 286.77 145.898 286.493 145.713C286.217 145.529 286.041 145.275 286 145C286.041 144.725 286.217 144.471 286.493 144.287C286.77 144.102 287.129 144 287.5 144C287.871 144 288.23 144.102 288.507 144.287C288.783 144.471 288.959 144.725 289 145Z" fill="#CBD5FB"/>
</g>
<g filter="url(#filter16_d_29_55)">
<path d="M297 122C296.973 122.275 296.856 122.529 296.671 122.713C296.487 122.898 296.248 123 296 123C295.752 123 295.513 122.898 295.329 122.713C295.144 122.529 295.027 122.275 295 122C295.027 121.725 295.144 121.471 295.329 121.287C295.513 121.102 295.752 121 296 121C296.248 121 296.487 121.102 296.671 121.287C296.856 121.471 296.973 121.725 297 122Z" fill="#CBD5FB"/>
</g>
<g filter="url(#filter17_d_29_55)">
<path d="M317 110.5C316.973 110.912 316.856 111.293 316.671 111.57C316.487 111.847 316.248 112 316 112C315.752 112 315.513 111.847 315.329 111.57C315.144 111.293 315.027 110.912 315 110.5C315.027 110.088 315.144 109.707 315.329 109.43C315.513 109.153 315.752 109 316 109C316.248 109 316.487 109.153 316.671 109.43C316.856 109.707 316.973 110.088 317 110.5Z" fill="#CBD5FB"/>
</g>
<g filter="url(#filter18_d_29_55)">
<path d="M262 174C262 174.265 261.895 174.52 261.707 174.707C261.52 174.895 261.265 175 261 175C260.735 175 260.48 174.895 260.293 174.707C260.105 174.52 260 174.265 260 174C260 173.735 260.105 173.48 260.293 173.293C260.48 173.105 260.735 173 261 173C261.265 173 261.52 173.105 261.707 173.293C261.895 173.48 262 173.735 262 174Z" fill="#CBD5FB"/>
</g>
<g filter="url(#filter19_d_29_55)">
<path d="M240 166C239.959 166.275 239.783 166.529 239.507 166.713C239.23 166.898 238.871 167 238.5 167C238.129 167 237.77 166.898 237.493 166.713C237.217 166.529 237.041 166.275 237 166C237.041 165.725 237.217 165.471 237.493 165.287C237.77 165.102 238.129 165 238.5 165C238.871 165 239.23 165.102 239.507 165.287C239.783 165.471 239.959 165.725 240 166Z" fill="#CBD5FB"/>
</g>
<g filter="url(#filter20_d_29_55)">
<path d="M246 143.5C245.973 143.912 245.856 144.293 245.671 144.57C245.487 144.847 245.248 145 245 145C244.752 145 244.513 144.847 244.329 144.57C244.144 144.293 244.027 143.912 244 143.5C244.027 143.088 244.144 142.707 244.329 142.43C244.513 142.153 244.752 142 245 142C245.248 142 245.487 142.153 245.671 142.43C245.856 142.707 245.973 143.088 246 143.5Z" fill="#CBD5FB"/>
</g>
<g filter="url(#filter21_d_29_55)">
<path d="M240 120C239.973 120.275 239.856 120.529 239.671 120.713C239.487 120.898 239.248 121 239 121C238.752 121 238.513 120.898 238.329 120.713C238.144 120.529 238.027 120.275 238 120C238.027 119.725 238.144 119.471 238.329 119.287C238.513 119.102 238.752 119 239 119C239.248 119 239.487 119.102 239.671 119.287C239.856 119.471 239.973 119.725 240 120Z" fill="#CBD5FB"/>
</g>
<g filter="url(#filter22_d_29_55)">
<path d="M216 110.5C216 110.898 215.842 111.279 215.561 111.561C215.279 111.842 214.898 112 214.5 112C214.102 112 213.721 111.842 213.439 111.561C213.158 111.279 213 110.898 213 110.5C213 110.102 213.158 109.721 213.439 109.439C213.721 109.158 214.102 109 214.5 109C214.898 109 215.279 109.158 215.561 109.439C215.842 109.721 216 110.102 216 110.5Z" fill="#CBD5FB"/>
</g>
<g filter="url(#filter23_d_29_55)">
<path d="M328.498 86.575C328.177 86.463 327.792 86.735 327.44 87.1351C327.772 85.7035 327.991 84.2483 328.097 82.7826C328.225 81.0544 328.273 78.1101 327.247 77.9821C327.055 77.9821 326.558 77.8701 325.917 79.4063C325.997 78.2382 326.237 74.4138 325.083 74.2377C323.928 74.0617 323.111 77.9981 322.357 80.4944C322.357 79.2783 322.149 74.8778 320.882 74.7978C320.593 74.7978 319.76 74.7978 318.974 78.9422C318.594 81.0511 318.107 83.1393 317.515 85.1989L317.259 84.7348C314.95 80.6864 314.164 80.2864 313.635 80.4784C313.106 80.6704 312.785 81.4705 313.635 85.919C314.597 90.7195 311.711 96.7841 311.07 98.0642L310.028 97.6642C309.965 97.6416 309.896 97.6403 309.832 97.6606C309.768 97.6808 309.713 97.7215 309.675 97.7762C302.955 107.443 295.685 116.718 287.902 125.555C287.645 125.843 288.094 126.243 288.367 125.939C296.127 117.139 303.375 107.901 310.076 98.2722C314.903 99.9418 318.981 103.264 321.588 107.649C305.554 133.508 284.022 154.47 274.578 163.047C275.669 157.782 273.103 151.238 272.975 150.934C272.938 150.873 272.882 150.827 272.815 150.804C272.748 150.78 272.675 150.781 272.608 150.806C272.542 150.83 272.486 150.877 272.45 150.939C272.415 151 272.402 151.072 272.414 151.142C272.414 151.366 278.827 173.912 237.221 197.547C240.428 191.562 235.217 175.832 232.411 169.08C229.605 162.327 222.887 149.398 216.426 146.197H227.264C240.315 158.694 239.53 158.006 239.722 158.006C239.775 158.003 239.826 157.987 239.87 157.958C239.914 157.929 239.95 157.889 239.975 157.843C239.999 157.796 240.01 157.744 240.008 157.691C240.006 157.638 239.991 157.587 239.963 157.542L204.048 101.729C209.564 103.697 223.384 95.6 224.138 89.8714C232.154 103.505 253.398 136.788 266.177 146.133C266.988 146.791 267.934 147.261 268.949 147.51C269.964 147.759 271.021 147.781 272.045 147.573C272.117 147.549 272.178 147.5 272.219 147.436C272.259 147.372 272.277 147.297 272.269 147.221C272.103 146.054 272.103 144.869 272.269 143.701C277.079 144.597 278.859 141.125 278.827 136.212C278.827 136.132 278.795 136.054 278.738 135.997C278.681 135.94 278.603 135.908 278.522 135.908C278.442 135.908 278.364 135.94 278.307 135.997C278.25 136.054 278.218 136.132 278.218 136.212C278.218 139.605 277.416 141.797 275.797 142.725C273.119 144.325 269.031 141.877 268.886 141.797C268.841 141.768 268.788 141.753 268.734 141.751C268.68 141.75 268.626 141.763 268.579 141.789C268.532 141.815 268.492 141.853 268.464 141.9C268.437 141.946 268.422 141.999 268.422 142.053C268.422 142.213 268.261 141.925 271.548 146.245C271.548 146.501 271.548 146.773 271.628 147.045C268.598 147.605 266.385 145.669 264.093 143.637C266.498 143.541 265.215 137.812 264.622 135.476C264.608 135.416 264.576 135.363 264.53 135.322C264.484 135.282 264.426 135.257 264.365 135.252C259.732 131.828 262.489 127.571 264.782 130.116C265.568 130.996 266.145 131.332 266.61 131.236C267.075 131.14 267.379 130.356 267.347 130.18C266.241 123.059 273.103 118.178 276.47 126.355C276.506 126.42 276.565 126.469 276.634 126.494C276.704 126.519 276.781 126.517 276.85 126.49C276.918 126.462 276.975 126.411 277.008 126.345C277.042 126.279 277.05 126.203 277.031 126.131V126.003C277.292 125.749 277.582 125.529 277.897 125.347C277.928 125.409 277.979 125.459 278.042 125.488C278.105 125.517 278.176 125.523 278.244 125.506C278.311 125.49 278.371 125.45 278.413 125.395C278.454 125.34 278.476 125.272 278.474 125.203C277.785 87.7271 271.74 80.9104 269.175 79.7103C268.673 79.4687 268.11 79.3794 267.557 79.4533C267.005 79.5273 266.486 79.7613 266.065 80.1264C265.321 80.8618 264.734 81.7401 264.34 82.7082C263.946 83.6763 263.753 84.7142 263.772 85.7589C259.876 74.4298 254.585 69.7573 251.122 70.3653C248.252 70.8294 246.697 74.4778 246.873 80.3984C247.042 86.8825 248.155 93.3076 250.176 99.4724C246.889 93.7918 244.051 91.2155 242.031 92.1916C238.824 93.7918 239.594 103.393 243.426 111.394C253.799 133.044 264.028 134.212 264.878 141.797C264.766 142.565 264.509 142.821 264.365 142.901C264.221 142.981 263.339 142.901 262.601 142.165C249.566 129.683 233.116 103.857 223.994 88.3352C223.759 87.9002 223.416 87.5331 222.997 87.2695C222.579 87.0059 222.099 86.8549 221.605 86.8311L221.38 86.367C220.863 85.413 220.646 84.3254 220.757 83.2463C220.869 82.1672 221.304 81.1468 222.005 80.3184C228.419 72.5896 227.296 71.3254 226.928 70.9094C224.859 68.6532 219.2 75.4539 216.185 75.8219C215.464 75.9179 214.582 73.1016 214.39 71.7575C214.39 71.7575 212.915 62.1565 212.786 61.5484C212.546 59.7402 211.953 56.7479 210.702 56.7479C209.451 56.7479 209.099 60.4763 209.099 61.9485C209.099 65.0688 209.099 67.5971 209.099 69.1972C207.928 65.5008 206.165 59.9803 206.004 59.4362C205.475 57.66 204.401 54.7317 203.118 55.0198C202.156 55.2438 201.868 57.308 202.381 60.4123C202.974 63.9807 203.615 68.1251 203.984 70.5734C203.102 68.6212 202.012 66.0289 200.89 62.9566C200.12 60.8604 198.966 58.4281 197.86 58.7321C196.497 59.1002 197.122 62.9886 197.346 64.1727C197.683 66.0289 198.501 69.9173 199.174 72.4776C198.485 71.2294 197.763 69.8053 197.106 68.2691C196.224 66.2209 194.957 63.8367 193.899 64.1887C192.536 64.6528 193.418 68.6532 193.723 69.8693C194.797 74.1577 195.663 76.1579 197.876 83.9828C199.253 88.5207 200.929 92.9629 202.894 97.2801C201.627 99.7924 202.894 100.768 202.894 100.961L231.513 145.605C211.456 145.605 214.614 145.493 213.011 145.829C210.654 146.821 209.804 150.822 210.702 157.03L167.412 164.263C141.631 109.009 143.491 112.786 143.186 112.834C142.064 112.834 141.022 112.994 139.98 113.122C138.152 109.393 138.296 104.225 130.504 100.672C122.712 97.1201 110.928 81.4705 108.507 86.095C107.288 88.4152 121.333 114.514 122.936 119.362C121.91 120.05 120.916 120.787 119.986 121.555C119.941 121.593 119.907 121.643 119.89 121.7C119.873 121.757 119.873 121.818 119.89 121.875C125.694 141.221 131.835 160.599 138.376 179.609C110.912 167.095 112.547 167.735 112.323 167.943C111.697 168.536 111.072 169.16 110.479 169.8C106.599 167.895 103.633 163.831 95.3113 165.783C86.9901 167.735 68.8566 162.583 69.0009 167.751C69.081 170.952 98.9508 182.825 101.837 184.697C101.468 185.913 101.131 187.129 100.859 188.33C100.847 188.386 100.851 188.444 100.871 188.498C100.891 188.552 100.925 188.599 100.971 188.634C119.985 203.476 140.32 216.55 161.721 227.694C164.31 229.079 167.179 229.861 170.113 229.983C173.048 230.105 175.973 229.563 178.668 228.398C197.604 220.378 215.711 210.533 232.732 199.003C233.369 199.316 234.083 199.438 234.788 199.356C235.494 199.274 236.16 198.99 236.708 198.539C257.423 186.937 266.417 175.624 270.297 167.623C286.331 154.166 308.296 130.276 322.229 107.777C322.259 107.732 322.275 107.679 322.275 107.625C322.275 107.571 322.259 107.518 322.229 107.473C321.987 107.016 321.719 106.573 321.427 106.145C322.213 104.849 327.327 96.208 328.61 90.2714C329.316 87.2631 328.931 86.703 328.498 86.575ZM202.974 60.3483C202.429 57.02 202.974 55.7398 203.263 55.6598C203.551 55.5798 204.401 56.2359 205.427 59.6602C205.587 60.1883 209.435 72.3175 209.532 72.6056C208.242 73.1364 207.007 73.7902 205.844 74.5578C205.716 74.2057 205.972 74.8938 204.882 72.5896C204.802 71.9975 203.84 65.5808 202.974 60.3483ZM197.94 64.1087C197.298 60.7484 197.731 59.4362 197.94 59.3082C198.148 59.1802 199.014 59.8363 200.248 63.1646C201.696 67.1175 203.356 70.9901 205.219 74.7658C204.15 75.5354 203.148 76.3917 202.221 77.3261C201.478 76.4096 200.818 75.4298 200.248 74.3978C199.286 71.0141 198.515 67.579 197.94 64.1087ZM198.437 83.8707C196.256 76.1099 195.406 74.2698 194.3 69.7733C193.434 66.3009 193.787 64.9728 194.076 64.8128C194.364 64.6528 195.166 65.3088 196.545 68.5572C197.981 71.8655 199.788 75.0006 201.932 77.9021C200.97 78.9102 200.04 80.0303 199.078 81.2625C198.821 81.5665 199.302 81.9345 199.543 81.6305C203.07 77.118 206.229 74.1577 211.937 72.3656C211.98 72.3587 212.021 72.3427 212.057 72.3186C212.093 72.2946 212.124 72.2631 212.147 72.2262C212.17 72.1893 212.185 72.148 212.19 72.1049C212.196 72.0618 212.192 72.0181 212.18 71.9765C212.167 71.935 212.145 71.8966 212.117 71.8641C212.088 71.8315 212.052 71.8055 212.013 71.7878C211.973 71.7701 211.93 71.7611 211.886 71.7613C211.843 71.7616 211.8 71.7712 211.76 71.7895C211.183 71.9655 210.622 72.1575 210.157 72.3656L209.772 71.1654C209.772 70.6854 209.772 67.181 209.772 61.9965C209.772 58.6041 210.478 57.42 210.798 57.404C211.119 57.388 211.824 58.1721 212.305 61.6924C212.386 62.2685 213.909 71.9015 213.909 71.9015C213.909 71.9015 214.726 76.702 216.378 76.494C219.36 76.1099 225.084 69.7573 226.591 71.3735C226.864 71.6775 227.328 73.1976 221.653 79.9983C220.877 80.921 220.397 82.0548 220.274 83.253C220.151 84.4512 220.391 85.6586 220.963 86.719C220.963 86.8951 223.064 90.9275 223.224 91.2155C220.803 96.016 211.456 101.585 205.892 101.409C202.776 95.8504 200.276 89.9697 198.437 83.8707ZM143.026 113.442C162.603 155.43 166.242 163.367 167.076 164.759C167.236 165.063 167.076 165.015 167.573 164.951L224.539 155.35C228.002 160.702 230.878 166.41 233.116 172.376L170.988 182.489C167.943 182.987 164.82 182.412 162.154 180.861C159.489 179.31 157.448 176.882 156.382 173.992L134.528 114.786C137.308 114.053 140.155 113.603 143.026 113.442ZM109.116 86.383C110.992 82.7826 122.712 97.7442 130.312 101.217C137.911 104.689 137.543 109.217 139.37 113.202C133.71 113.936 128.283 115.914 123.482 118.994C121.83 114.306 108.154 88.2072 109.116 86.383ZM69.5781 167.735C69.4819 163.607 87.3107 168.295 95.4396 166.375C103.312 164.519 106.118 168.279 110.03 170.264C106.421 174.276 103.69 178.996 102.013 184.121C98.8226 182.217 69.6743 170.344 69.5781 167.735ZM178.427 227.806C175.817 228.937 172.984 229.465 170.141 229.348C167.298 229.232 164.518 228.475 162.009 227.134C140.698 216.033 120.445 203.018 101.5 188.25C103.144 180.739 107.009 173.894 112.595 168.6L138.633 180.473L143.443 193.994C144.902 198.091 147.686 201.586 151.355 203.93C155.024 206.274 159.37 207.333 163.709 206.939C188.288 204.683 207.672 201.131 224.715 195.738C224.782 195.707 224.835 195.654 224.865 195.587C224.895 195.519 224.9 195.444 224.878 195.374C224.857 195.303 224.811 195.243 224.748 195.204C224.686 195.166 224.611 195.151 224.539 195.162C207.528 200.507 188.191 204.043 163.613 206.363C159.397 206.736 155.176 205.695 151.619 203.406C148.062 201.117 145.371 197.709 143.972 193.722C135.955 171.144 129.27 151.43 120.564 121.891C124.481 118.684 129.024 116.324 133.903 114.962L155.772 174.168C156.756 176.829 158.532 179.125 160.863 180.747C163.193 182.369 165.966 183.24 168.807 183.241C170.411 183.241 165.12 184.025 233.277 172.92C236.612 181.801 238.231 190.17 237.461 194.954C219.044 208.022 199.248 219.038 178.427 227.806ZM325.612 82.3986C326.494 78.7182 327.215 78.5102 327.215 78.5102C327.215 78.5102 327.792 79.4703 327.568 82.7186C327.281 86.0141 326.509 89.2494 325.275 92.3196C325.004 91.2218 324.633 90.1507 324.169 89.1193C324.805 86.9258 325.287 84.6909 325.612 82.4306V82.3986ZM323.608 78.2222C324.425 75.0218 324.987 74.7658 324.987 74.7658C324.987 74.7658 325.516 75.7419 325.355 78.6862C325.192 81.9374 324.654 85.1589 323.752 88.2872C323.259 87.2674 322.668 86.2975 321.988 85.3909C322.175 84.4252 322.282 83.4458 322.309 82.4626C322.758 81.3105 323.191 79.8543 323.608 78.2542V78.2222ZM328.017 90.1914C326.814 95.76 322.149 103.793 321.042 105.649C318.658 102.38 315.419 99.8278 311.679 98.2722C312.401 96.8641 315.303 90.7675 314.292 85.7589C313.443 81.6145 313.795 81.0705 313.844 80.9584C313.892 80.8464 314.581 81.1505 316.729 84.9269C318.878 88.7032 320.112 97.6322 320.129 97.7282C320.129 98.1442 320.77 98.0162 320.722 97.7282C320.187 93.7374 319.241 89.8123 317.9 86.015C318.567 83.7217 319.102 81.3923 319.503 79.0382C320.048 76.1099 320.626 75.4059 320.77 75.3899C320.914 75.3739 321.379 75.6299 321.636 79.4223C321.74 81.2432 321.675 83.0698 321.443 84.8788C321.225 84.6128 320.989 84.3616 320.738 84.1268C320.449 83.8547 320.032 84.3028 320.321 84.5588C322.855 87.3214 324.473 90.7972 324.954 94.5118C324.954 94.5925 324.987 94.6698 325.044 94.7268C325.101 94.7838 325.178 94.8159 325.259 94.8159C325.34 94.8159 325.417 94.7838 325.475 94.7268C325.532 94.6698 325.564 94.5925 325.564 94.5118C325.387 93.2317 325.307 93.6958 325.564 92.9117C325.82 92.1276 326.397 90.7035 326.846 89.1353C327.13 88.3852 327.592 87.7152 328.193 87.1831C328.193 87.1831 328.61 87.5031 328.017 90.1914Z" fill="#CBD5FB"/>
</g>
<g filter="url(#filter24_d_29_55)">
<path d="M289.025 127.745C288.942 127.128 288.733 126.534 288.411 125.999C288.089 125.464 287.661 125 287.152 124.634C286.643 124.269 286.065 124.01 285.452 123.873C284.839 123.736 284.205 123.724 283.587 123.837C316.331 90.6634 258.309 63.4226 291.825 30.5198C291.883 30.4627 291.915 30.3853 291.915 30.3045C291.915 30.2237 291.883 30.1463 291.825 30.0892C291.768 30.0321 291.689 30 291.608 30C291.526 30 291.448 30.0321 291.391 30.0892C257.295 63.5821 316.17 90.9824 282.589 124.029L272.356 125.624C271.325 125.781 270.378 126.277 269.666 127.032C268.954 127.786 268.518 128.757 268.43 129.786C255.444 131.381 256.185 131.27 256.024 131.477C255.863 131.684 256.442 131.955 260.191 135.959C260.4 136.15 259.934 136.102 269.186 135.002C269.513 135.879 270.103 136.636 270.877 137.172C271.65 137.708 272.57 137.996 273.514 138C273.997 138 273.208 138 285.614 136.246C286.83 136.057 287.922 135.399 288.651 134.417C289.38 133.434 289.688 132.205 289.508 130.998L289.025 127.745ZM285.518 135.576L280.69 136.309C280.158 136.402 279.612 136.388 279.085 136.267C278.558 136.146 278.061 135.921 277.624 135.605C277.187 135.29 276.819 134.89 276.541 134.43C276.263 133.97 276.082 133.459 276.008 132.928C275.525 129.738 275.348 129.18 275.606 128.144C275.804 127.38 276.223 126.69 276.812 126.16C277.402 125.63 278.134 125.283 278.921 125.161L283.748 124.443C284.271 124.364 284.805 124.389 285.319 124.516C285.832 124.642 286.315 124.869 286.74 125.182C287.165 125.495 287.523 125.888 287.794 126.339C288.065 126.79 288.243 127.289 288.317 127.809L288.784 130.998C288.957 132.034 288.711 133.095 288.1 133.952C287.488 134.809 286.56 135.393 285.518 135.576Z" fill="white"/>
</g>
<defs>
<filter id="filter0_d_29_55" x="71" y="120" width="89" height="76" filterUnits="userSpaceOnUse" color-interpolation-filters="sRGB">
<feFlood flood-opacity="0" result="BackgroundImageFix"/>
<feColorMatrix in="SourceAlpha" type="matrix" values="0 0 0 0 0 0 0 0 0 0 0 0 0 0 0 0 0 0 127 0" result="hardAlpha"/>
<feOffset/>
<feGaussianBlur stdDeviation="15"/>
<feComposite in2="hardAlpha" operator="out"/>
<feColorMatrix type="matrix" values="0 0 0 0 0.741667 0 0 0 0 0.814 0 0 0 0 1 0 0 0 1 0"/>
<feBlend mode="normal" in2="BackgroundImageFix" result="effect1_dropShadow_29_55"/>
<feBlend mode="normal" in="SourceGraphic" in2="effect1_dropShadow_29_55" result="shape"/>
</filter>
<filter id="filter1_d_29_55" x="0" y="47" width="224" height="183" filterUnits="userSpaceOnUse" color-interpolation-filters="sRGB">
<feFlood flood-opacity="0" result="BackgroundImageFix"/>
<feColorMatrix in="SourceAlpha" type="matrix" values="0 0 0 0 0 0 0 0 0 0 0 0 0 0 0 0 0 0 127 0" result="hardAlpha"/>
<feOffset/>
<feGaussianBlur stdDeviation="15"/>
<feComposite in2="hardAlpha" operator="out"/>
<feColorMatrix type="matrix" values="0 0 0 0 0.741667 0 0 0 0 0.814 0 0 0 0 1 0 0 0 1 0"/>
<feBlend mode="normal" in2="BackgroundImageFix" result="effect1_dropShadow_29_55"/>
<feBlend mode="normal" in="SourceGraphic" in2="effect1_dropShadow_29_55" result="shape"/>
</filter>
<filter id="filter2_d_29_55" x="231" y="92" width="77" height="86" filterUnits="userSpaceOnUse" color-interpolation-filters="sRGB">
<feFlood flood-opacity="0" result="BackgroundImageFix"/>
<feColorMatrix in="SourceAlpha" type="matrix" values="0 0 0 0 0 0 0 0 0 0 0 0 0 0 0 0 0 0 127 0" result="hardAlpha"/>
<feOffset/>
<feGaussianBlur stdDeviation="15"/>
<feComposite in2="hardAlpha" operator="out"/>
<feColorMatrix type="matrix" values="0 0 0 0 0.741667 0 0 0 0 0.814 0 0 0 0 1 0 0 0 1 0"/>
<feBlend mode="normal" in2="BackgroundImageFix" result="effect1_dropShadow_29_55"/>
<feBlend mode="normal" in="SourceGraphic" in2="effect1_dropShadow_29_55" result="shape"/>
</filter>
<filter id="filter3_d_29_55" x="281" y="45" width="77" height="92" filterUnits="userSpaceOnUse" color-interpolation-filters="sRGB">
<feFlood flood-opacity="0" result="BackgroundImageFix"/>
<feColorMatrix in="SourceAlpha" type="matrix" values="0 0 0 0 0 0 0 0 0 0 0 0 0 0 0 0 0 0 127 0" result="hardAlpha"/>
<feOffset/>
<feGaussianBlur stdDeviation="15"/>
<feComposite in2="hardAlpha" operator="out"/>
<feColorMatrix type="matrix" values="0 0 0 0 0.741667 0 0 0 0 0.814 0 0 0 0 1 0 0 0 1 0"/>
<feBlend mode="normal" in2="BackgroundImageFix" result="effect1_dropShadow_29_55"/>
<feBlend mode="normal" in="SourceGraphic" in2="effect1_dropShadow_29_55" result="shape"/>
</filter>
<filter id="filter4_d_29_55" x="163" y="26" width="94" height="106" filterUnits="userSpaceOnUse" color-interpolation-filters="sRGB">
<feFlood flood-opacity="0" result="BackgroundImageFix"/>
<feColorMatrix in="SourceAlpha" type="matrix" values="0 0 0 0 0 0 0 0 0 0 0 0 0 0 0 0 0 0 127 0" result="hardAlpha"/>
<feOffset/>
<feGaussianBlur stdDeviation="15"/>
<feComposite in2="hardAlpha" operator="out"/>
<feColorMatrix type="matrix" values="0 0 0 0 0.741667 0 0 0 0 0.814 0 0 0 0 1 0 0 0 1 0"/>
<feBlend mode="normal" in2="BackgroundImageFix" result="effect1_dropShadow_29_55"/>
<feBlend mode="normal" in="SourceGraphic" in2="effect1_dropShadow_29_55" result="shape"/>
</filter>
<filter id="filter5_d_29_55" x="261" y="12" width="85" height="85" filterUnits="userSpaceOnUse" color-interpolation-filters="sRGB">
<feFlood flood-opacity="0" result="BackgroundImageFix"/>
<feColorMatrix in="SourceAlpha" type="matrix" values="0 0 0 0 0 0 0 0 0 0 0 0 0 0 0 0 0 0 127 0" result="hardAlpha"/>
<feOffset/>
<feGaussianBlur stdDeviation="15"/>
<feComposite in2="hardAlpha" operator="out"/>
<feColorMatrix type="matrix" values="0 0 0 0 0.741667 0 0 0 0 0.814 0 0 0 0 1 0 0 0 1 0"/>
<feBlend mode="normal" in2="BackgroundImageFix" result="effect1_dropShadow_29_55"/>
<feBlend mode="normal" in="SourceGraphic" in2="effect1_dropShadow_29_55" result="shape"/>
</filter>
<filter id="filter6_d_29_55" x="79" y="56" width="91" height="94" filterUnits="userSpaceOnUse" color-interpolation-filters="sRGB">
<feFlood flood-opacity="0" result="BackgroundImageFix"/>
<feColorMatrix in="SourceAlpha" type="matrix" values="0 0 0 0 0 0 0 0 0 0 0 0 0 0 0 0 0 0 127 0" result="hardAlpha"/>
<feOffset/>
<feGaussianBlur stdDeviation="15"/>
<feComposite in2="hardAlpha" operator="out"/>
<feColorMatrix type="matrix" values="0 0 0 0 0.741667 0 0 0 0 0.814 0 0 0 0 1 0 0 0 1 0"/>
<feBlend mode="normal" in2="BackgroundImageFix" result="effect1_dropShadow_29_55"/>
<feBlend mode="normal" in="SourceGraphic" in2="effect1_dropShadow_29_55" result="shape"/>
</filter>
<filter id="filter7_d_29_55" x="40" y="136" width="101" height="79" filterUnits="userSpaceOnUse" color-interpolation-filters="sRGB">
<feFlood flood-opacity="0" result="BackgroundImageFix"/>
<feColorMatrix in="SourceAlpha" type="matrix" values="0 0 0 0 0 0 0 0 0 0 0 0 0 0 0 0 0 0 127 0" result="hardAlpha"/>
<feOffset/>
<feGaussianBlur stdDeviation="15"/>
<feComposite in2="hardAlpha" operator="out"/>
<feColorMatrix type="matrix" values="0 0 0 0 0.741667 0 0 0 0 0.814 0 0 0 0 1 0 0 0 1 0"/>
<feBlend mode="normal" in2="BackgroundImageFix" result="effect1_dropShadow_29_55"/>
<feBlend mode="normal" in="SourceGraphic" in2="effect1_dropShadow_29_55" result="shape"/>
</filter>
<filter id="filter8_d_29_55" x="177" y="45" width="67" height="76" filterUnits="userSpaceOnUse" color-interpolation-filters="sRGB">
<feFlood flood-opacity="0" result="BackgroundImageFix"/>
<feColorMatrix in="SourceAlpha" type="matrix" values="0 0 0 0 0 0 0 0 0 0 0 0 0 0 0 0 0 0 127 0" result="hardAlpha"/>
<feOffset/>
<feGaussianBlur stdDeviation="15"/>
<feComposite in2="hardAlpha" operator="out"/>
<feColorMatrix type="matrix" values="0 0 0 0 0.741667 0 0 0 0 0.814 0 0 0 0 1 0 0 0 1 0"/>
<feBlend mode="normal" in2="BackgroundImageFix" result="effect1_dropShadow_29_55"/>
<feBlend mode="normal" in="SourceGraphic" in2="effect1_dropShadow_29_55" result="shape"/>
</filter>
<filter id="filter9_d_29_55" x="73" y="198" width="77" height="77" filterUnits="userSpaceOnUse" color-interpolation-filters="sRGB">
<feFlood flood-opacity="0" result="BackgroundImageFix"/>
<feColorMatrix in="SourceAlpha" type="matrix" values="0 0 0 0 0 0 0 0 0 0 0 0 0 0 0 0 0 0 127 0" result="hardAlpha"/>
<feOffset/>
<feGaussianBlur stdDeviation="15"/>
<feComposite in2="hardAlpha" operator="out"/>
<feColorMatrix type="matrix" values="0 0 0 0 0.741667 0 0 0 0 0.814 0 0 0 0 1 0 0 0 1 0"/>
<feBlend mode="normal" in2="BackgroundImageFix" result="effect1_dropShadow_29_55"/>
<feBlend mode="normal" in="SourceGraphic" in2="effect1_dropShadow_29_55" result="shape"/>
</filter>
<filter id="filter10_d_29_55" x="136" y="18" width="72" height="72" filterUnits="userSpaceOnUse" color-interpolation-filters="sRGB">
<feFlood flood-opacity="0" result="BackgroundImageFix"/>
<feColorMatrix in="SourceAlpha" type="matrix" values="0 0 0 0 0 0 0 0 0 0 0 0 0 0 0 0 0 0 127 0" result="hardAlpha"/>
<feOffset/>
<feGaussianBlur stdDeviation="15"/>
<feComposite in2="hardAlpha" operator="out"/>
<feColorMatrix type="matrix" values="0 0 0 0 0.741667 0 0 0 0 0.814 0 0 0 0 1 0 0 0 1 0"/>
<feBlend mode="normal" in2="BackgroundImageFix" result="effect1_dropShadow_29_55"/>
<feBlend mode="normal" in="SourceGraphic" in2="effect1_dropShadow_29_55" result="shape"/>
</filter>
<filter id="filter11_d_29_55" x="275" y="101" width="89" height="89" filterUnits="userSpaceOnUse" color-interpolation-filters="sRGB">
<feFlood flood-opacity="0" result="BackgroundImageFix"/>
<feColorMatrix in="SourceAlpha" type="matrix" values="0 0 0 0 0 0 0 0 0 0 0 0 0 0 0 0 0 0 127 0" result="hardAlpha"/>
<feOffset/>
<feGaussianBlur stdDeviation="15"/>
<feComposite in2="hardAlpha" operator="out"/>
<feColorMatrix type="matrix" values="0 0 0 0 0.741667 0 0 0 0 0.814 0 0 0 0 1 0 0 0 1 0"/>
<feBlend mode="normal" in2="BackgroundImageFix" result="effect1_dropShadow_29_55"/>
<feBlend mode="normal" in="SourceGraphic" in2="effect1_dropShadow_29_55" result="shape"/>
</filter>
<filter id="filter12_d_29_55" x="165" y="189" width="146" height="126" filterUnits="userSpaceOnUse" color-interpolation-filters="sRGB">
<feFlood flood-opacity="0" result="BackgroundImageFix"/>
<feColorMatrix in="SourceAlpha" type="matrix" values="0 0 0 0 0 0 0 0 0 0 0 0 0 0 0 0 0 0 127 0" result="hardAlpha"/>
<feOffset/>
<feGaussianBlur stdDeviation="15"/>
<feComposite in2="hardAlpha" operator="out"/>
<feColorMatrix type="matrix" values="0 0 0 0 0.741667 0 0 0 0 0.814 0 0 0 0 1 0 0 0 1 0"/>
<feBlend mode="normal" in2="BackgroundImageFix" result="effect1_dropShadow_29_55"/>
<feBlend mode="normal" in="SourceGraphic" in2="effect1_dropShadow_29_55" result="shape"/>
</filter>
<filter id="filter13_d_29_55" x="243" y="182" width="75" height="74" filterUnits="userSpaceOnUse" color-interpolation-filters="sRGB">
<feFlood flood-opacity="0" result="BackgroundImageFix"/>
<feColorMatrix in="SourceAlpha" type="matrix" values="0 0 0 0 0 0 0 0 0 0 0 0 0 0 0 0 0 0 127 0" result="hardAlpha"/>
<feOffset/>
<feGaussianBlur stdDeviation="15"/>
<feComposite in2="hardAlpha" operator="out"/>
<feColorMatrix type="matrix" values="0 0 0 0 0.741667 0 0 0 0 0.814 0 0 0 0 1 0 0 0 1 0"/>
<feBlend mode="normal" in2="BackgroundImageFix" result="effect1_dropShadow_29_55"/>
<feBlend mode="normal" in="SourceGraphic" in2="effect1_dropShadow_29_55" result="shape"/>
</filter>
<filter id="filter14_d_29_55" x="235" y="121" width="63" height="63" filterUnits="userSpaceOnUse" color-interpolation-filters="sRGB">
<feFlood flood-opacity="0" result="BackgroundImageFix"/>
<feColorMatrix in="SourceAlpha" type="matrix" values="0 0 0 0 0 0 0 0 0 0 0 0 0 0 0 0 0 0 127 0" result="hardAlpha"/>
<feOffset/>
<feGaussianBlur stdDeviation="15"/>
<feComposite in2="hardAlpha" operator="out"/>
<feColorMatrix type="matrix" values="0 0 0 0 0.741667 0 0 0 0 0.814 0 0 0 0 1 0 0 0 1 0"/>
<feBlend mode="normal" in2="BackgroundImageFix" result="effect1_dropShadow_29_55"/>
<feBlend mode="normal" in="SourceGraphic" in2="effect1_dropShadow_29_55" result="shape"/>
</filter>
<filter id="filter15_d_29_55" x="256" y="114" width="63" height="62" filterUnits="userSpaceOnUse" color-interpolation-filters="sRGB">
<feFlood flood-opacity="0" result="BackgroundImageFix"/>
<feColorMatrix in="SourceAlpha" type="matrix" values="0 0 0 0 0 0 0 0 0 0 0 0 0 0 0 0 0 0 127 0" result="hardAlpha"/>
<feOffset/>
<feGaussianBlur stdDeviation="15"/>
<feComposite in2="hardAlpha" operator="out"/>
<feColorMatrix type="matrix" values="0 0 0 0 0.741667 0 0 0 0 0.814 0 0 0 0 1 0 0 0 1 0"/>
<feBlend mode="normal" in2="BackgroundImageFix" result="effect1_dropShadow_29_55"/>
<feBlend mode="normal" in="SourceGraphic" in2="effect1_dropShadow_29_55" result="shape"/>
</filter>
<filter id="filter16_d_29_55" x="265" y="91" width="62" height="62" filterUnits="userSpaceOnUse" color-interpolation-filters="sRGB">
<feFlood flood-opacity="0" result="BackgroundImageFix"/>
<feColorMatrix in="SourceAlpha" type="matrix" values="0 0 0 0 0 0 0 0 0 0 0 0 0 0 0 0 0 0 127 0" result="hardAlpha"/>
<feOffset/>
<feGaussianBlur stdDeviation="15"/>
<feComposite in2="hardAlpha" operator="out"/>
<feColorMatrix type="matrix" values="0 0 0 0 0.741667 0 0 0 0 0.814 0 0 0 0 1 0 0 0 1 0"/>
<feBlend mode="normal" in2="BackgroundImageFix" result="effect1_dropShadow_29_55"/>
<feBlend mode="normal" in="SourceGraphic" in2="effect1_dropShadow_29_55" result="shape"/>
</filter>
<filter id="filter17_d_29_55" x="285" y="79" width="62" height="63" filterUnits="userSpaceOnUse" color-interpolation-filters="sRGB">
<feFlood flood-opacity="0" result="BackgroundImageFix"/>
<feColorMatrix in="SourceAlpha" type="matrix" values="0 0 0 0 0 0 0 0 0 0 0 0 0 0 0 0 0 0 127 0" result="hardAlpha"/>
<feOffset/>
<feGaussianBlur stdDeviation="15"/>
<feComposite in2="hardAlpha" operator="out"/>
<feColorMatrix type="matrix" values="0 0 0 0 0.741667 0 0 0 0 0.814 0 0 0 0 1 0 0 0 1 0"/>
<feBlend mode="normal" in2="BackgroundImageFix" result="effect1_dropShadow_29_55"/>
<feBlend mode="normal" in="SourceGraphic" in2="effect1_dropShadow_29_55" result="shape"/>
</filter>
<filter id="filter18_d_29_55" x="230" y="143" width="62" height="62" filterUnits="userSpaceOnUse" color-interpolation-filters="sRGB">
<feFlood flood-opacity="0" result="BackgroundImageFix"/>
<feColorMatrix in="SourceAlpha" type="matrix" values="0 0 0 0 0 0 0 0 0 0 0 0 0 0 0 0 0 0 127 0" result="hardAlpha"/>
<feOffset/>
<feGaussianBlur stdDeviation="15"/>
<feComposite in2="hardAlpha" operator="out"/>
<feColorMatrix type="matrix" values="0 0 0 0 0.741667 0 0 0 0 0.814 0 0 0 0 1 0 0 0 1 0"/>
<feBlend mode="normal" in2="BackgroundImageFix" result="effect1_dropShadow_29_55"/>
<feBlend mode="normal" in="SourceGraphic" in2="effect1_dropShadow_29_55" result="shape"/>
</filter>
<filter id="filter19_d_29_55" x="207" y="135" width="63" height="62" filterUnits="userSpaceOnUse" color-interpolation-filters="sRGB">
<feFlood flood-opacity="0" result="BackgroundImageFix"/>
<feColorMatrix in="SourceAlpha" type="matrix" values="0 0 0 0 0 0 0 0 0 0 0 0 0 0 0 0 0 0 127 0" result="hardAlpha"/>
<feOffset/>
<feGaussianBlur stdDeviation="15"/>
<feComposite in2="hardAlpha" operator="out"/>
<feColorMatrix type="matrix" values="0 0 0 0 0.741667 0 0 0 0 0.814 0 0 0 0 1 0 0 0 1 0"/>
<feBlend mode="normal" in2="BackgroundImageFix" result="effect1_dropShadow_29_55"/>
<feBlend mode="normal" in="SourceGraphic" in2="effect1_dropShadow_29_55" result="shape"/>
</filter>
<filter id="filter20_d_29_55" x="214" y="112" width="62" height="63" filterUnits="userSpaceOnUse" color-interpolation-filters="sRGB">
<feFlood flood-opacity="0" result="BackgroundImageFix"/>
<feColorMatrix in="SourceAlpha" type="matrix" values="0 0 0 0 0 0 0 0 0 0 0 0 0 0 0 0 0 0 127 0" result="hardAlpha"/>
<feOffset/>
<feGaussianBlur stdDeviation="15"/>
<feComposite in2="hardAlpha" operator="out"/>
<feColorMatrix type="matrix" values="0 0 0 0 0.741667 0 0 0 0 0.814 0 0 0 0 1 0 0 0 1 0"/>
<feBlend mode="normal" in2="BackgroundImageFix" result="effect1_dropShadow_29_55"/>
<feBlend mode="normal" in="SourceGraphic" in2="effect1_dropShadow_29_55" result="shape"/>
</filter>
<filter id="filter21_d_29_55" x="208" y="89" width="62" height="62" filterUnits="userSpaceOnUse" color-interpolation-filters="sRGB">
<feFlood flood-opacity="0" result="BackgroundImageFix"/>
<feColorMatrix in="SourceAlpha" type="matrix" values="0 0 0 0 0 0 0 0 0 0 0 0 0 0 0 0 0 0 127 0" result="hardAlpha"/>
<feOffset/>
<feGaussianBlur stdDeviation="15"/>
<feComposite in2="hardAlpha" operator="out"/>
<feColorMatrix type="matrix" values="0 0 0 0 0.741667 0 0 0 0 0.814 0 0 0 0 1 0 0 0 1 0"/>
<feBlend mode="normal" in2="BackgroundImageFix" result="effect1_dropShadow_29_55"/>
<feBlend mode="normal" in="SourceGraphic" in2="effect1_dropShadow_29_55" result="shape"/>
</filter>
<filter id="filter22_d_29_55" x="183" y="79" width="63" height="63" filterUnits="userSpaceOnUse" color-interpolation-filters="sRGB">
<feFlood flood-opacity="0" result="BackgroundImageFix"/>
<feColorMatrix in="SourceAlpha" type="matrix" values="0 0 0 0 0 0 0 0 0 0 0 0 0 0 0 0 0 0 127 0" result="hardAlpha"/>
<feOffset/>
<feGaussianBlur stdDeviation="15"/>
<feComposite in2="hardAlpha" operator="out"/>
<feColorMatrix type="matrix" values="0 0 0 0 0.741667 0 0 0 0 0.814 0 0 0 0 1 0 0 0 1 0"/>
<feBlend mode="normal" in2="BackgroundImageFix" result="effect1_dropShadow_29_55"/>
<feBlend mode="normal" in="SourceGraphic" in2="effect1_dropShadow_29_55" result="shape"/>
</filter>
<filter id="filter23_d_29_55" x="39" y="25" width="320" height="235" filterUnits="userSpaceOnUse" color-interpolation-filters="sRGB">
<feFlood flood-opacity="0" result="BackgroundImageFix"/>
<feColorMatrix in="SourceAlpha" type="matrix" values="0 0 0 0 0 0 0 0 0 0 0 0 0 0 0 0 0 0 127 0" result="hardAlpha"/>
<feOffset/>
<feGaussianBlur stdDeviation="15"/>
<feComposite in2="hardAlpha" operator="out"/>
<feColorMatrix type="matrix" values="0 0 0 0 0.741667 0 0 0 0 0.814 0 0 0 0 1 0 0 0 1 0"/>
<feBlend mode="normal" in2="BackgroundImageFix" result="effect1_dropShadow_29_55"/>
<feBlend mode="normal" in="SourceGraphic" in2="effect1_dropShadow_29_55" result="shape"/>
</filter>
<filter id="filter24_d_29_55" x="226" y="0" width="98" height="168" filterUnits="userSpaceOnUse" color-interpolation-filters="sRGB">
<feFlood flood-opacity="0" result="BackgroundImageFix"/>
<feColorMatrix in="SourceAlpha" type="matrix" values="0 0 0 0 0 0 0 0 0 0 0 0 0 0 0 0 0 0 127 0" result="hardAlpha"/>
<feOffset/>
<feGaussianBlur stdDeviation="15"/>
<feComposite in2="hardAlpha" operator="out"/>
<feColorMatrix type="matrix" values="0 0 0 0 0.741667 0 0 0 0 0.814 0 0 0 0 1 0 0 0 1 0"/>
<feBlend mode="normal" in2="BackgroundImageFix" result="effect1_dropShadow_29_55"/>
<feBlend mode="normal" in="SourceGraphic" in2="effect1_dropShadow_29_55" result="shape"/>
</filter>
</defs>
</svg>
