/* XPM */
static char *s_EPR_icon_64[] = {
/* columns rows colors chars-per-pixel */
"64 64 144 2 ",
"   c None",
".  c #4F4F51",
"X  c #505051",
"o  c #505052",
"O  c #515152",
"+  c #515153",
"@  c #525254",
"#  c #535354",
"$  c #535355",
"%  c #545455",
"&  c #545456",
"*  c #555557",
"=  c #565657",
"-  c #565658",
";  c #575759",
":  c #585859",
">  c #58585A",
",  c #5B5B5C",
"<  c #5B5B5D",
"1  c #5C5C5D",
"2  c #5D5C5E",
"3  c #5E5E60",
"4  c #5F5F60",
"5  c #5F5F61",
"6  c #616162",
"7  c #616163",
"8  c #626263",
"9  c #626264",
"0  c #636364",
"q  c #646465",
"w  c #646466",
"e  c #656566",
"r  c #666667",
"t  c #676768",
"y  c #686869",
"u  c #6A6A6B",
"i  c #6D6D6E",
"p  c #6F6F70",
"a  c #737273",
"s  c #737374",
"d  c #747475",
"f  c #767676",
"g  c #777777",
"h  c #777778",
"j  c #7C7C7D",
"k  c #7E7E7E",
"l  c #838283",
"z  c #868687",
"x  c gray55",
"c  c #8D8D8E",
"v  c #908F90",
"b  c #939393",
"n  c #959595",
"m  c #9B9B9B",
"M  c #9C9B9C",
"N  c gray62",
"B  c #9F9E9F",
"V  c #A2A2A2",
"C  c gray64",
"Z  c #A3A3A5",
"A  c #A5A4A4",
"S  c #A9A9A9",
"D  c #ABAAAA",
"F  c #B1B0B0",
"G  c #B2B2B2",
"H  c #B3B3B2",
"J  c #B4B3B4",
"K  c #B4B4B4",
"L  c #B5B4B5",
"P  c gray71",
"I  c #B7B7B7",
"U  c gray72",
"Y  c #BCBBBB",
"T  c #BDBCBC",
"R  c #BEBEBD",
"E  c #BFBEBE",
"W  c #C1C1C1",
"Q  c #C3C2C2",
"!  c #C3C3C3",
"~  c #C7C6C6",
"^  c #C8C7C7",
"/  c gray79",
"(  c #CBCACA",
")  c #CDCDCC",
"_  c #CECECD",
"`  c #CECECE",
"'  c gray81",
"]  c #D0D0D0",
"[  c gray82",
"{  c #D2D2D2",
"}  c LightGray",
"|  c gray83",
" . c #D5D5D5",
".. c #D6D6D5",
"X. c gray84",
"o. c #D7D7D7",
"O. c #D8D7D6",
"+. c #D8D8D7",
"@. c #D9D8D7",
"#. c #D8D8D8",
"$. c #D9D9D8",
"%. c gray85",
"&. c #DADADA",
"*. c #DBDADA",
"=. c gray86",
"-. c #DCDBDB",
";. c #DCDCDB",
":. c gainsboro",
">. c #DDDCDC",
",. c #DDDDDC",
"<. c #DDDDDD",
"1. c #DEDDDD",
"2. c #DEDEDC",
"3. c #DEDEDD",
"4. c gray87",
"5. c #DFDEDE",
"6. c #DFDFDF",
"7. c #E0DFDF",
"8. c #E0E0DF",
"9. c gray88",
"0. c #E1E0E0",
"q. c #E1E1E0",
"w. c #E1E1E1",
"e. c #E2E1E0",
"r. c #E2E1E1",
"t. c #E2E2E1",
"y. c #E3E2E1",
"u. c #E3E2E2",
"i. c #E3E3E2",
"p. c #E4E3E2",
"a. c #E4E3E3",
"s. c #E5E4E3",
"d. c #E5E4E4",
"f. c #E5E5E4",
"g. c #E6E5E4",
"h. c #E6E5E5",
"j. c #E6E6E5",
"k. c #E7E6E5",
"l. c #E7E7E6",
"z. c #E8E7E6",
"x. c #E8E8E7",
"c. c #E9E8E7",
"v. c #E9E9E8",
"b. c #EAE9E8",
/* pixels */
"                                                                                                                                ",
"                                                                                                                                ",
"                                                                                                                                ",
"                                                                                                                                ",
"                                                                                                                                ",
"                                                                                                                                ",
"                                                                                                                                ",
"                                                                                                                                ",
"                                                                                                                                ",
"                                                                                                                                ",
"                        :.=.=.=.:.                                                            =.=.=.=.:.                        ",
"                    =.=.=.=.=.=.=.=.=.:.                                                  =.=.=.=.=.=.=.=.=.                    ",
"                ;.:.=.=.=.=.=.=.=.=.=.=.:.                                            =.=.=.=.=.=.=.=.=.=.=.=.=.                ",
"              =.=.:.i.h.z.h.a.7.=.=.=.=.=.=.                                        =.=.7.a.h.z.s.a.:.=.=.:.=.=.=.              ",
"            :.:.h.b.b.b.b.b.b.b.z.7.=.=.=.=.=.                                    =.9.h.b.b.b.b.b.b.b.z.:.:.=.=.=.=.            ",
"          =.i.b.b.b.b.b.b.b.b.b.b.b.i.=.=.=.=.=.                                =.i.b.b.b.b.b.b.b.b.b.b.b.i.=.=.=.=.=.          ",
"        ;.i.c.b.b.b.b.b.b.b.b.b.b.b.b.k.;.=.=.=.=.                            =.h.b.b.b.b.b.b.b.b.b.b.b.b.b.s.=.=.=.=.=.        ",
"        i.c.b.b.b.b.b.b.b.b.b.b.b.b.b.b.a.=.=.=.=.                            a.c.b.b.b.b.b.b.b.b.b.b.b.b.b.c.i.=.=.=.=.        ",
"      :.b.b.b.b.b.b.b.b.b.b.b.b.b.b.b.b.c.8.=.=.=.=.                        i.c.b.b.b.b.b.b.b.b.b.b.b.b.b.b.b.b.:.=.=.=.=.      ",
"      h.b.b.b.b.b.b.b.b.b.b.b.b.b.b.b.b.c.c.;.=.=.=.                        z.b.b.b.b.b.b.b.b.b.b.b.b.b.b.b.b.b.z.-.=.=.=.      ",
"    9.b.b.b.b.b.b.b.b.b.b.b.b.b.b.b.b.b.b.b.i.=.=.=.=.                    i.c.b.b.b.b.b.b.b.b.b.b.b.b.b.b.b.b.b.b.8.=.=.=.=.    ",
"    h.b.b.b.b.b.b.b.b.b.b.b.b.b.b.b.b.b.b.b.c.;.=.=.=.                    c.b.b.b.b.b.b.b.b.b.b.b.b.b.b.b.b.b.b.b.z.=.:.=.=.    ",
"  =.b.b.b.b.b.b.b.b.b.b.b.b.b.b.b.b.b.b.b.b.b.i.=.=.=.=.                :.b.b.b.b.b.b.b.b.b.b.b.b.b.b.b.b.b.b.b.b.b.:.:.=.=.    ",
"  :.b.b.b.b.b.b.b.b.b.b.b.b.b.b.b.b.b.b.b.c.c.h.=.=.=.=.                8.b.b.b.b.b.b.b.b.b.b.b.b.b.b.b.b.b.b.b.b.b.a.=.=.=.=.  ",
"  :.b.b.c.b.b.b.b.b.b.b.b.b.b.b.b.b.b.b.b.b.b.b.:.=.=.=.                i.b.b.b.b.b.b.b.b.b.b.b.b.b.b.b.b.b.b.b.b.b.z.:.-.=.=.  ",
"=.:.b.b.Y A n M K 8.b.b.b.b.b.b.b.b.b.b.b.b.b.b.8.=.=.=.              :.7.c.z.J V b B U h.b.b.b.b.b.b.b.b.b.b.b.b.b.c.:.=.=.=.  ",
";.8.E 2 2 e e e e i F b.b.b.b.b.b.b.b.b.b.b.b.b.i.=.=.=.=.            :.i.S > 8 e e e e a Y b.b.b.b.b.b.b.b.b.b.b.b.b.i.=.=.=.  ",
":.K @ > e e e e e e e U b.b.b.b.b.b.b.b.b.b.b.b.h.=.=.=.=.            :.M @ , e e e e e e t ^ b.b.b.b.b.b.b.b.b.b.b.b.a.=.=.=.=.",
"..& . 8 e e e e e e e y ( b.b.b.b.b.b.b.b.b.b.b.z.=.=.=.=.            ! @ . 8 e e e e e e e p O.b.b.b.b.b.b.b.b.b.b.b.h.=.=.=.=.",
"x @ . e e e e e e e e e k b.b.b.b.b.b.b.b.b.b.b.b.=.=.=.=.            s . @ e e e e e e e e e b b.b.b.b.b.b.b.b.b.b.b.z.=.=.=.=.",
", . @ e e e e e e e e e y s.c.b.b.b.b.b.b.b.b.b.b.:.:.=.=.            # . # e e e e e e e e e g b.b.b.b.b.b.b.b.b.b.b.c.=.=.=.=.",
"& . . 8 e e e e e e e e e ) b.b.b.b.b.b.b.b.b.b.b.:.=.=.=.            . . @ e e e e e e e e e e i.b.b.b.b.b.b.b.b.b.b.b.=.=.=.=.",
"@ . @ > e e e e e e e e e W b.b.b.b.b.b.b.b.b.b.b.:.=.=.=.            . . . 4 e e e e e e e e e O.b.b.b.b.b.b.b.b.b.b.b.=.=.=.=.",
"8 . . @ e e e e e e e e y i.b.b.b.b.b.b.b.b.b.b.b.:.=.=.=.            - . . & e e e e e e e e g b.b.b.b.b.b.b.b.b.b.c.c.=.=.=.=.",
"c . . . & e e e e e e e z b.b.b.b.b.b.b.b.b.b.b.b.:.=.=.=.            h . . @ : e e e e e e e m b.b.b.b.b.b.b.b.b.b.b.c.=.=.=.=.",
"+.@ . . @ & 9 e e e e e E b.b.b.b.b.b.b.b.b.b.b.c.=.=.=.=.            / . . . . - q e e e e y ` b.b.b.b.b.b.b.b.b.b.b.h.=.=.=.=.",
":.I & . . . . & 5 8 8 G b.b.b.b.b.b.b.b.b.b.b.b.h.=.=.=.=.            :.Z @ . . . . - 5 9 e ~ b.b.b.b.b.b.b.b.b.b.b.c.a.=.=.=.=.",
"-.=.` 9 . . . . @ . c c.b.b.b.b.b.b.b.b.b.b.b.b.i.=.=.=.=.            :.-.W < . . . . . @ V b.b.b.b.b.b.b.b.b.b.b.b.c.i.=.=.=.  ",
"..;.;.=.I l y g B :.b.b.b.b.b.b.b.b.b.b.b.b.b.b.i.=.=.=.              :.=.=.=.G b g j S s.b.b.b.b.b.b.b.b.b.b.b.b.b.c.:.=.=.=.  ",
"  :.=.=.i.b.b.b.b.b.b.b.b.b.b.b.b.b.b.b.b.b.b.b.=.=.=.o.                :.=.=.i.b.b.b.b.b.b.b.b.b.b.b.b.b.b.b.b.b.b.z.=.=.=.=.  ",
"  :.=.=.=.h.b.b.b.b.b.b.b.b.b.b.b.b.b.b.b.b.b.h.=.=.=...                :.:.=.:.c.b.b.b.b.b.b.b.b.b.b.b.b.b.b.b.b.b.h.=.=.=...  ",
"  =.=.=.=.i.b.b.b.b.b.b.b.b.b.b.b.b.b.b.b.b.b.7.=.=.o.}                 -.=.=.=.i.b.b.b.b.b.b.b.b.b.b.b.b.b.b.b.b.b.:.=.=.....  ",
"    :.=.=.=.a.b.b.b.b.b.b.b.b.b.b.b.b.b.b.b.z.:.:.=.]                     :.=.=.:.z.b.b.b.b.b.b.b.b.b.b.b.b.b.b.b.z.-.=.=.`     ",
"    =.=.=.;.:.h.b.b.b.b.b.b.b.b.b.b.b.b.b.b.i.=.:.] '                     =.=.=.=.:.c.b.b.b.b.b.b.b.b.b.b.b.b.b.b.8.=.=.] ]     ",
"      :.=.=.=.:.b.b.b.b.b.b.b.b.b.b.b.b.b.b.:.:...` ]                     ..=.=.=.=.7.b.b.b.b.b.b.b.b.b.b.b.b.b.h.=.:.] ` ]     ",
"      ..:.=.=.-.:.h.b.b.b.b.b.b.b.b.b.b.b.:.=...` `                         =.=.=.=.:.:.b.b.b.b.b.b.b.b.b.b.b.b.:.:.] ` ]       ",
"        =.=.=.=.=.=.s.b.b.b.b.b.b.b.b.b.i.#.' ` ] ..                        ..;.=.=.=.=.:.h.b.c.b.b.b.b.b.b.b.i.=.` ` `         ",
"        ] :.=.=.=.=.=.:.h.z.b.b.b.b.b.h.} ` ` ` ]                             ] :.-.=.=.=.=.8.h.z.b.b.b.b.b.i.] ` ` ' ..        ",
"          ] =.=.=.=.=.=.=.=.:.i.:.7.:.` ` ` ` ]                                 ' =.=.:.=.=.=.=.=.:.i.7.:.:.` ` ` ` ]           ",
"            ] ..:.=.=.=.=.=.=.=.:.=.` ` ` ` `                                     ] ..:.=.=.=.:.=.=.:.:...` ` ` ` '             ",
"              ] ' ..:.:.:.:.:.=.` ` ` ` ` ]                                       ..' ` o.:.:.:.:.:...` ` ` ` ` ]               ",
"                ] ' ' ` ` ` ` ` ` ` ` ] ]                                             ] ` ' ` ` ' ` ` ` ` ` ` ..                ",
"                  ..` ` ` ' ' ` ] ' ] ]                                                 ..` ` ' ` ` ] ' ` ' ]                   ",
"                      ..| ] ] ] ] ]                                                         ..| ] ] ] ] ..                      ",
"                                                                                                                                ",
"                                                                                                                                ",
"                                                                                                                                ",
"                                                                                                                                ",
"                                                                                                                                ",
"                                                                                                                                ",
"                                                                                                                                ",
"                                                                                                                                ",
"                                                                                                                                ",
"                                                                                                                                "
};
