/* XPM */
static char *s_EPR_icon_32[] = {
/* columns rows colors chars-per-pixel */
"32 32 98 2 ",
"   c None",
".  c #4F4F51",
"X  c #505052",
"o  c #515153",
"O  c #535355",
"+  c #545456",
"@  c #555557",
"#  c #575759",
"$  c #58585A",
"%  c #5A5A5B",
"&  c #5A5A5C",
"*  c #606061",
"=  c #616162",
"-  c #646465",
";  c #646466",
":  c #656566",
">  c #666667",
",  c #666668",
"<  c #686869",
"1  c #69696A",
"2  c #6B6B6C",
"3  c #757576",
"4  c #757577",
"5  c #787879",
"6  c #808081",
"7  c gray52",
"8  c #8D8D8D",
"9  c #8E8E90",
"0  c #908F90",
"q  c #959596",
"w  c gray61",
"e  c #9F9F9F",
"r  c #A5A5A6",
"t  c gray65",
"y  c #AAA9A9",
"u  c gray68",
"i  c #B0AFAF",
"p  c #BEBEBD",
"a  c gray75",
"s  c #C0C0C0",
"d  c #C1C0C1",
"f  c #C6C5C5",
"g  c #C7C6C5",
"h  c #C7C6C6",
"j  c #CAC9C9",
"k  c #CECECE",
"l  c gray81",
"z  c #D0D0D0",
"x  c gray82",
"c  c #D2D1D1",
"v  c #D2D2D2",
"b  c LightGray",
"n  c #D5D5D5",
"m  c #D7D7D7",
"M  c #D8D7D7",
"N  c #D8D8D7",
"B  c #D8D8D8",
"V  c #D9D8D8",
"C  c gray85",
"Z  c #DAD9D8",
"A  c #DAD9D9",
"S  c #DADAD9",
"D  c #DADADA",
"F  c #DBDADA",
"G  c #DBDBDA",
"H  c gray86",
"J  c gainsboro",
"K  c #DDDCDC",
"L  c #DDDDDC",
"P  c #DDDDDD",
"I  c #DEDDDD",
"U  c #DEDEDD",
"Y  c #DFDFDD",
"T  c gray87",
"R  c #DFDEDE",
"E  c #DFDFDE",
"W  c #DFDFDF",
"Q  c #E0E0DF",
"!  c gray88",
"~  c #E1E0E0",
"^  c #E2E1E0",
"/  c #E2E1E1",
"(  c #E2E2E1",
")  c #E3E2E1",
"_  c #E3E2E2",
"`  c #E3E3E2",
"'  c #E4E4E3",
"]  c #E5E4E3",
"[  c #E5E4E4",
"{  c #E6E5E4",
"}  c #E6E5E5",
"|  c #E7E6E5",
" . c #E7E6E6",
".. c #E7E7E6",
"X. c #E8E7E6",
"o. c #E8E7E7",
"O. c #E9E8E7",
"+. c #EAE9E8",
/* pixels */
"                                                                ",
"                                                                ",
"                                                                ",
"                                                                ",
"                                                                ",
"            H H H                             H H J             ",
"        J J ! J H H H                     J J Q J J H H         ",
"      ! O.+.+.+.} J H J                 J } O.+.+.+.Q H H       ",
"    ! +.+.+.+.+.+.O.J J K             J O.+.+.+.+.+.+.J J J     ",
"  ! +.+.+.+.+.+.+.+.{ J G             { +.+.+.+.+.+.+.+.J J     ",
"  X.+.+.+.+.+.+.+.+.O.Q K           Q O.+.+.+.+.+.+.+.+.} J J   ",
"H +.+.+.+.+.+.+.+.+.+.] G J         ] +.+.+.+.+.+.+.+.+.O.J J   ",
"J O.J g ] +.+.+.+.+.+.+.J J         ] ] j N +.+.+.+.+.+.+.! J J ",
"N 3 ; ; 2 u +.+.+.+.+.+.Y J       J r ; > ; 7 Q +.+.+.+.+.} K G ",
"3 % ; ; ; > g +.+.+.+.+.Q G       s X ; ; > ; 8 +.+.+.+.+.} H H ",
"% & ; ; ; > e +.+.+.+.+.Q J       0 X ; ; ; ; < X.+.+.+.+.X.H H ",
"+ O > ; ; ; w +.+.+.+.+.! H       6 . * ; ; ; > ] +.+.+.+.O.J J ",
"5 . # ; ; ; g +.+.+.+.+.! H       s X X * ; ; q +.+.+.+.+.{ G G ",
"n > X X % t +.+.+.+.+.+.Q G       H q X . # 3 _ +.+.+.+.O.} G G ",
"Y J d y G +.+.+.+.+.+.+.K H         J x i p +.+.+.+.+.+.+.! H H ",
"G G Q +.+.+.+.+.+.+.+.} H n         J J X.O.+.+.+.+.+.+.+.J G   ",
"  J G _ +.+.+.+.+.+.O.Q H x         H J Q +.+.+.+.+.+.+.} G b   ",
"  H J K } +.+.+.+.+.X.H x             J G ~ +.+.+.+.+.+.J b x   ",
"    H G J ! X.+.+.X.n k b             n K G J X.+.+.+.Q x z     ",
"      H H G K J J b l x                 x J H H J J H k k       ",
"        l n H x k k x                     x x H n z k l         ",
"          x x k x x                         x x x x x           ",
"                                                                ",
"                                                                ",
"                                                                ",
"                                                                ",
"                                                                "
};
