/* XPM */
static char *EPR_icon[] = {
/* columns rows colors chars-per-pixel */
"32 32 121 2 ",
"   c None",
".  c #FD5B00",
"X  c #FE5B00",
"o  c #FD5E00",
"O  c #FD5F00",
"+  c #FD6300",
"@  c #FD6800",
"#  c #FD6C00",
"$  c #FD6F00",
"%  c #FD6F0A",
"&  c #FD7000",
"*  c #FD7400",
"=  c #FE7400",
"-  c #FD7800",
";  c #FD7B03",
":  c #FD7D00",
">  c #FE7C00",
",  c #FD7A04",
"<  c #FD700A",
"1  c #FE8000",
"2  c #FE8500",
"3  c #FE8703",
"4  c #FE8900",
"5  c #FE8D00",
"6  c #FE8209",
"7  c #FE870B",
"8  c #FE8F0B",
"9  c #FE8D0E",
"0  c #FE9100",
"q  c #FE9400",
"w  c #FE9500",
"e  c #FD9800",
"r  c #FE9900",
"t  c #FD9E00",
"y  c #FE9E00",
"u  c #FE9F02",
"i  c #FD821F",
"p  c #FE9E13",
"a  c #FE9F14",
"s  c #FE9C1B",
"d  c #FE9C1C",
"f  c #FEA200",
"g  c #FEA600",
"h  c #FEAA00",
"j  c #FEAD00",
"k  c #FDAF00",
"l  c #FEAE00",
"z  c #FEB200",
"x  c #FEB300",
"c  c #FEB700",
"v  c #FEB800",
"b  c #FEBB00",
"n  c #FFBF00",
"m  c #FEA519",
"M  c #FD8621",
"N  c #FD8722",
"B  c #FE9F22",
"V  c #FE9A2D",
"C  c #FE9A2E",
"Z  c #FE9730",
"A  c #FE9832",
"S  c #FEA226",
"D  c #FFC300",
"F  c #FFC700",
"G  c #FFCB00",
"H  c #FFCF00",
"J  c #FFD400",
"K  c #FFD800",
"L  c #FFDC00",
"P  c #FEA242",
"I  c #FEA343",
"U  c #FEBB40",
"Y  c #FEBC41",
"T  c #FEB349",
"R  c #FEB449",
"E  c #FEB34F",
"W  c #FEB350",
"Q  c #FFB352",
"!  c #FFB757",
"~  c #FFBB5A",
"^  c #FEC571",
"/  c #FEC572",
"(  c #FFD279",
")  c #FFD37B",
"_  c #FFD67A",
"`  c #FFD77B",
"'  c #FFD786",
"]  c #FFD788",
"[  c #FFDA8E",
"{  c #FFDB8E",
"}  c #FFDE94",
"|  c #FFE092",
" . c #FFE193",
".. c #FFE296",
"X. c #FFE49A",
"o. c #FFE59C",
"O. c #FFE69C",
"+. c #FFE79E",
"@. c #FFE79F",
"#. c #FFE8A0",
"$. c #FFE8A2",
"%. c #FFE9A4",
"&. c #FFEAA6",
"*. c #FFEBA8",
"=. c #FFECAA",
"-. c #FFECAB",
";. c #FFEDAC",
":. c #FFEEAE",
">. c #FFEFB0",
",. c #FFF0B3",
"<. c #FFF5BF",
"1. c #FFF6C0",
"2. c #FFF6C1",
"3. c #FFF7C3",
"4. c #FFF7C4",
"5. c #FFFBCE",
"6. c #FFFDD0",
"7. c #FFFED1",
"8. c #FFFED2",
"9. c #FFFFD4",
"0. c #FFFFD5",
/* pixels */
"                    L L           0.0.                          ",
"                    K K K         8.8.                          ",
"                    J J J J       8.8.                          ",
"                    H H H H H     5.                            ",
"                      G G G G G                                 ",
"                      F F F F F                                 ",
"                      D D D D D D     D D                       ",
"                      n n n n n n     n n n                     ",
"            3.        b b b b b b     b b b b       3.3.        ",
"            3.3.      c c b c c b     c c c c       <.3.        ",
"            <.        z z z z z z     z z z z z     <.<.        ",
"                    l l l l l l l l l l l l l l                 ",
"                    h h h h h h h h h h h h h h                 ",
"                  g g g g g g g g g g g g g g g                 ",
"          f       f f f f f f f f f f f f f f f     f           ",
"          y y   y y y y y Y ` ...._ Y y y y y y y y y           ",
"        r r r r r r r m | ,.,.,.,.,.,.| m r r r r r r r         ",
"        w w w w w w a +.>.>.>.>.>.>.>.>.+.p w w w w w w         ",
"        0 0 0 0 0 0 _ :.>.:.:.-.=.:.:.:.:.( 0 0 0 0 0 0         ",
"        5 5 5 5 5 d >.-.-.-.:.S B :.-.:.-.:.s 5 5 5 5 5         ",
"        4 4 4 4 4 T -.-.*.-.*.8 8 =.-.-.-.-.T 4 4 3 4 4         ",
"        3 3 3 1 3 ~ *.%.*.*.*.8 3 ' *.-.*.*.~ 3 3 3 3 3         ",
"        1 1 1 1 1 E %.%.%.*.*.! : 7 } %.%.%.E 1 : : : 1         ",
"        : : : : : A %.%.%.%.%.%.Q 6 ] %.%.%.V : : : : :         ",
"          - - - - , { %.%.%.%.%.$.%.$.$.%.{ - - - - -           ",
"          = = = = = A @.@.@.@.@.+.+.$.+.+.A = = = = =           ",
"            & & & & & I X.@.@.@.+.+.+.+.P & & & & #             ",
"              # # # # @ N ^ X.X.+.X.^ M # # # # #               ",
"              @ @ @ @ @ @ @ < i i % @ @ @ @ @ @                 ",
"                  @ + + + + + + + + + + + + +                   ",
"                    o o o o o o + o o o + o                     ",
"                          o . X X X X                           "
};
